<svg width="30" height="30" viewBox="0 0 30 30" fill="none" xmlns="http://www.w3.org/2000/svg">
<g clip-path="url(#clip0_87_6)">
<rect width="30" height="30" rx="15" fill="#C4C4C4"/>
<rect x="-6.34909" y="15.1399" width="30.2585" height="30.1127" rx="5" transform="rotate(-45 -6.34909 15.1399)" fill="url(#paint0_linear_87_6)"/>
<path d="M6.496 18.004H12.4297V19.5H5V14.1194C5 13.1137 5.25143 12.1792 5.75429 11.316C6.25714 10.4444 6.94019 9.75714 7.80343 9.25429C8.66667 8.75143 9.60533 8.5 10.6194 8.5H12.4297V9.996H10.6194C10.0747 9.996 9.54667 10.1008 9.03543 10.3103C8.53257 10.5198 8.08838 10.8173 7.70286 11.2029C7.31733 11.5884 7.01981 12.0368 6.81029 12.548C6.60076 13.0509 6.496 13.5747 6.496 14.1194V18.004Z" fill="white"/>
<path d="M17.2632 10.524L13.9192 19.5H12.8381L16.1821 10.524H17.2632Z" fill="white"/>
<path d="M25.1841 18.004V19.5H21.4001C20.7548 19.4832 20.1514 19.2989 19.5898 18.9469C19.0283 18.5949 18.5841 18.1297 18.2573 17.5514C17.9304 16.9731 17.767 16.353 17.767 15.6909C17.767 15.0204 17.9304 14.4002 18.2573 13.8303C18.5925 13.2604 19.0451 12.8078 19.615 12.4726C20.1849 12.1457 20.8051 11.9823 21.4755 11.9823C22.146 11.9823 22.7662 12.1499 23.3361 12.4851C23.906 12.812 24.3586 13.2604 24.6938 13.8303C25.0207 14.3918 25.1841 15.012 25.1841 15.6909H23.7007C23.7007 15.3975 23.642 15.1168 23.5247 14.8486C23.4157 14.572 23.2565 14.329 23.047 14.1194C22.8374 13.9099 22.5944 13.7507 22.3178 13.6417C22.0496 13.5244 21.7689 13.4657 21.4755 13.4657C20.8889 13.4657 20.3651 13.6836 19.9041 14.1194C19.6946 14.329 19.5354 14.572 19.4264 14.8486C19.3174 15.1168 19.263 15.3975 19.263 15.6909C19.263 15.9926 19.3174 16.2985 19.4264 16.6086C19.5437 16.9103 19.703 17.1617 19.9041 17.3629C20.3567 17.7903 20.8805 18.004 21.4755 18.004H25.1841Z" fill="white"/>
</g>
<rect x="0.75" y="0.75" width="28.5" height="28.5" rx="14.25" stroke="#8F9200" stroke-width="1.5"/>
<defs>
<linearGradient id="paint0_linear_87_6" x1="16.2706" y1="27.6622" x2="-9.51049" y2="35.184" gradientUnits="userSpaceOnUse">
<stop stop-color="#986DCF"/>
<stop offset="1" stop-color="#FBFF30"/>
</linearGradient>
<clipPath id="clip0_87_6">
<rect width="30" height="30" rx="15" fill="white"/>
</clipPath>
</defs>
</svg>
