<svg width="1980" height="3070" viewBox="0 0 1980 3070" fill="none" xmlns="http://www.w3.org/2000/svg">
<g clip-path="url(#clip0_210_166)">
<path d="M1778.69 -247.211L1777.06 90.8191L1385.19 703.423L1723.25 -240.906L1721.11 -240.662L1380.44 710.895L1382.13 711.848L1778.83 91.7371L1779.01 91.4718L1780.61 -247.43L1778.69 -247.211Z" fill="#33B6BA"/>
<path d="M1911.72 72.315L1778.99 89.9764L1780.61 -247.426L1778.69 -247.208L1777.07 91.1489L1777.08 92.3486L1911.95 74.3355L1911.72 72.315Z" fill="#33B6BA"/>
<path d="M1778.95 91.4821L1663.74 461.916L1663.53 462.104L1381.97 712.062L1380.53 710.67L1777.26 90.5824L1778.95 91.4821ZM1662.06 460.715L1774.94 97.8325L1386.03 705.732L1662.06 460.715Z" fill="#33B6BA"/>
<path d="M1958.6 484.512L1930.41 524.668L1779.35 92.0336L1911.95 74.3327L1911.72 72.3122L1777.9 90.124L1776.72 90.2859L1929.84 528.908L1958.93 487.475L1958.6 484.512Z" fill="#33B6BA"/>
<path d="M1963.92 531.338L1931.86 526.033L1958.93 487.478L1958.6 484.514L1928.38 527.548L1964.16 533.44L1963.92 531.338Z" fill="#33B6BA"/>
<path d="M1931.65 528.217L1661.63 462.077L1661.97 461.002L1777.98 88.0761L1778.93 90.8063L1931.65 528.217ZM1664.15 460.59L1928.62 525.37L1778.09 94.2579L1664.15 460.59Z" fill="#33B6BA"/>
<path d="M1999.81 846.849L1912.84 926.738L1931.04 527.986L1964.16 533.443L1963.92 531.342L1930.25 525.784L1929.21 525.602L1910.83 929.014L1910.72 931.455L2000.09 849.328L1999.81 846.849Z" fill="#33B6BA"/>
<path d="M2012.39 957.437L1913.78 928.619L2000.09 849.323L1999.81 846.844L1911.16 928.316L1909.77 929.566L2012.63 959.62L2012.39 957.437Z" fill="#33B6BA"/>
<path d="M1931.12 525.981L1931.09 526.857L1912.6 932.683L1660.99 459.798L1931.12 525.981ZM1910.99 925.498L1929.13 527.572L1664.79 462.805L1910.99 925.498Z" fill="#33B6BA"/>
<path d="M1913.96 931.086L1911.46 930.06L1379.47 711.584L1380.72 710.459L1663.16 459.719L1663.74 460.799L1913.96 931.086ZM1383.21 710.968L1909.64 927.128L1662.62 462.891L1383.21 710.968Z" fill="#33B6BA"/>
<path d="M2082.77 1576.3L1745.52 1580.74L1912.14 931.589L2031.83 1128.46L2031.31 1123.85L1912.61 928.56L1911.42 926.595L1743.33 1581.51L1742.99 1582.83L2083.01 1578.38L2082.77 1576.3Z" fill="#33B6BA"/>
<path d="M1913.29 927.119L1912.73 929.393L1744.83 1583.44L1743.74 1582.63L1295.7 1262.29L1913.29 927.119ZM1743.68 1580.13L1910.27 931.065L1299.51 1262.54L1743.68 1580.13Z" fill="#33B6BA"/>
<path d="M2031.31 1123.85L1913.97 930.803L2012.64 959.615L2012.39 957.433L1912.03 928.104L1909.62 927.395L2031.84 1128.48L2031.31 1123.85Z" fill="#33B6BA"/>
<path d="M1747.2 1582.65L1744.35 1582.81L1185.83 1612.44L1186.25 1611L1297.12 1260.82L1747.2 1582.65ZM1188.54 1610.25L1741.32 1580.92L1298.12 1264.01L1188.54 1610.25Z" fill="#33B6BA"/>
<path d="M2141.77 2095.03L1795.78 1774.43L2092.12 1658.48L2091.88 1656.38L1792.07 1773.68L2142.11 2098.05L2141.77 2095.03Z" fill="#33B6BA"/>
<path d="M2091.88 1656.38L1794.57 1772.71L1745.5 1582.79L2083.01 1578.38L2082.77 1576.31L1743 1580.78L1793.01 1774.31L1793.28 1775.4L2092.12 1658.48L2091.88 1656.38Z" fill="#33B6BA"/>
<path d="M1795.29 1775.47L1186.96 1612.34L1187.15 1610.33L1744.98 1580.72L1745.2 1581.54L1795.29 1775.47ZM1193.65 1612.02L1792.56 1772.61L1743.53 1582.82L1193.65 1612.02Z" fill="#33B6BA"/>
<path d="M2146.43 2136.04L1908.06 2489.56L1795.32 1776.69L2142.11 2098.05L2141.77 2095.03L1794.57 1773.29L1792.52 1771.42L1906.55 2492.29L1906.96 2494.76L2146.78 2139.08L2146.43 2136.04Z" fill="#33B6BA"/>
<path d="M1908.71 2493.52L1561.71 2402.08L1562.12 2400.97L1794.31 1770.23L1794.9 1773.9L1908.71 2493.52ZM1564.33 2400.63L1906.36 2490.79L1793.59 1777.87L1564.33 2400.63Z" fill="#33B6BA"/>
<path d="M1795.62 1772.29L1794.81 1774.46L1563.53 2402.8L1562.57 2402.23L1024.28 2078.2L1795.62 1772.29ZM1562.51 2399.89L1792.23 1775.85L1028.83 2078.64L1562.51 2399.89Z" fill="#33B6BA"/>
<path d="M2194.86 2561.81L1909.15 2491.51L2146.78 2139.08L2146.43 2136.04L1906.72 2491.54L1905.89 2492.81L2195.1 2563.97L2194.86 2561.81Z" fill="#33B6BA"/>
<path d="M2241.61 2974.9L2241.84 2974.87L2241.42 2971.18L1909.82 2493.78L2195.1 2563.97L2194.86 2561.81L1905.21 2490.54L2241.61 2974.9Z" fill="#33B6BA"/>
<path d="M1565.11 2401.45L1563.44 2402.29L1004.75 2684.29L1025.64 2076.74L1565.11 2401.45ZM1006.78 2680.95L1560.92 2401.27L1027.44 2080.16L1006.78 2680.95Z" fill="#33B6BA"/>
<path d="M1563.7 2402.07L1204.73 2803.97L1003.68 2682.53L1005.35 2681.68L1562.59 2400.42L1563.7 2402.07ZM1204.36 2801.36L1558.7 2404.66L1007.84 2682.68L1204.36 2801.36Z" fill="#33B6BA"/>
<path d="M1780.36 2889.16L1780.04 2890.13L2067.27 2994.73L2071.81 2994.21L1782.5 2888.87L1907.83 2494.33L2241.61 2974.9L2241.84 2974.87L2241.42 2971.18L1908.29 2491.55L1907.18 2489.96L1780.36 2889.16Z" fill="#33B6BA"/>
<path d="M1908.78 2491.44L1908.42 2492.52L1781.42 2892.21L1561.27 2399.84L1563.22 2400.35L1908.78 2491.44ZM1781.11 2886.79L1906.26 2492.87L1564.74 2402.86L1781.11 2886.79Z" fill="#33B6BA"/>
<path d="M1782.93 2890.79L1781.18 2890.52L1202.58 2803.4L1203.9 2801.96L1563.27 2399.56L1563.88 2400.91L1782.93 2890.79ZM1206.55 2801.93L1779.67 2888.21L1562.78 2403.13L1206.55 2801.93Z" fill="#33B6BA"/>
<path d="M-42.6787 -40.1892L210.951 257.102L547.381 1313.57L-156.006 -27.3L-158 -27.0731L548.732 1322.53L550.595 1322.04L212.83 256.534L212.768 256.214L-40.3056 -40.4591L-42.6787 -40.1892Z" fill="#33B6BA"/>
<path d="M486.672 -100.26L212.785 255.119L-39.3426 -40.4334L-41.7157 -40.1635L212.122 257.378L212.86 258.249L489.399 -100.57L486.672 -100.26Z" fill="#33B6BA"/>
<path d="M386.255 814.298L386.238 814.6L549.179 1317.09L547.261 1317.09L211.886 256.855L213.712 256.265L386.255 814.298ZM549.179 1317.09L384.267 814.579L214.856 263.858L549.179 1317.09Z" fill="#33B6BA"/>
<path d="M1423.94 -206.856L1233.92 251.471L888.204 -145.924L885.856 -145.657L1233.52 254.001L1234.52 255.142L1426.16 -207.108L1423.94 -206.856Z" fill="#33B6BA"/>
<path d="M718.628 -126.639L792.857 573.221L214.333 256.364L489.399 -100.568L486.672 -100.257L212.07 256.022L211.312 257.008L793.573 575.923L795.179 576.778L720.521 -126.854L718.628 -126.639Z" fill="#33B6BA"/>
<path d="M885.854 -145.657L1232.76 253.132L794.793 573.166L720.521 -126.852L718.628 -126.637L793.068 575.082L793.239 576.809L1234.76 254.159L1235.68 253.482L888.201 -145.924L885.854 -145.657Z" fill="#33B6BA"/>
<path d="M1904.75 11.0498L1554 -221.654L1550.9 -221.301L1905.04 13.6362L1904.75 11.0498Z" fill="#33B6BA"/>
<path d="M795.352 574.875L793.847 575.81L615.692 852.628L207.069 251.906L209.525 253.264L795.352 574.875ZM616.563 849.718L791.352 575.003L211.113 256.44L616.563 849.718Z" fill="#33B6BA"/>
<path d="M1906.43 25.8695L1235.96 251.645L1426.16 -207.112L1423.94 -206.859L1233.34 252.872L1232.46 254.965L1906.67 27.9439L1906.43 25.8695Z" fill="#33B6BA"/>
<path d="M1904.75 11.0491L1554 -221.655L1550.9 -221.302L1905.04 13.6355L1904.75 11.0491Z" fill="#33B6BA"/>
<path d="M1913.37 86.8645L1864.38 643.659L1236.57 253.596L1906.67 27.9441L1906.43 25.8698L1233.91 252.315L1231.85 253.014L1864.73 646.267L1866.02 647.048L1914.46 96.4554L1913.37 86.8645Z" fill="#33B6BA"/>
<path d="M1235.4 251.188L1235.17 253.425L1159.92 1044.24L1158.45 1042.39L792.575 574.777L793.448 574.132L1235.4 251.188ZM1158.48 1039.22L1233.04 255.413L795.416 575.245L1158.48 1039.22Z" fill="#33B6BA"/>
<path d="M1867.22 645.406L1865.68 646.237L1158.07 1043.52L1158.26 1041.62L1233.4 251.632L1234.7 252.413L1867.22 645.406ZM1160.34 1039.91L1863.22 645.315L1235.02 254.996L1160.34 1039.91Z" fill="#33B6BA"/>
<path d="M1975.75 635.358L1866.29 644.232L1914.46 96.4814L1913.37 86.8633L1864.26 645.255L1864.15 646.496L1975.99 637.405L1975.75 635.358Z" fill="#33B6BA"/>
<path d="M1162.06 1043.79L1158.92 1042.7L612.344 852.869L794.206 573.645L794.744 574.321L1162.06 1043.79ZM616.458 851.549L1156.33 1039.69L793.797 576.339L616.458 851.549Z" fill="#33B6BA"/>
<path d="M2070.1 1464.85L1603.08 1947.2L1161.06 1043.29L2050.3 1290.78L2050.05 1288.63L1159.42 1040.73L1157.35 1040.14L1601.97 1949.35L1602.57 1950.59L2070.39 1467.41L2070.1 1464.85Z" fill="#33B6BA"/>
<path d="M1604.28 1949.68L1602.98 1949.91L813.226 2081.55L813.78 2079.9L1159.03 1039.16L1604.28 1949.68ZM816.13 2078.98L1601.37 1948.11L1159.39 1044.3L816.13 2078.98Z" fill="#33B6BA"/>
<path d="M2050.05 1288.63L1161.85 1041.4L1864.81 646.748L2011.1 946.097L2010.44 940.332L1866.09 644.911L1865.62 643.981L1156.55 1042.03L2050.3 1290.81L2050.05 1288.63Z" fill="#33B6BA"/>
<path d="M2010.44 940.331L1866.73 646.257L1975.99 637.405L1975.75 635.357L1865.12 644.31L1863.68 644.447L2011.1 946.096L2010.44 940.331Z" fill="#33B6BA"/>
<path d="M1605.51 1947.39L1603.53 1949.61L1028.99 2589.76L1028.39 2588.35L813.296 2079.47L814.527 2079.27L1605.51 1947.39ZM1029.54 2586.12L1600.15 1950.4L816.06 2081.06L1029.54 2586.12Z" fill="#33B6BA"/>
<path d="M2142.14 2098.26L1842.08 2107.29L2083.84 1585.66L2083.41 1581.91L1839.62 2107.89L1838.9 2109.42L2142.37 2100.31L2142.14 2098.26Z" fill="#33B6BA"/>
<path d="M2083.41 1581.91L1840.06 2106.89L1604.38 1948.72L2070.39 1467.41L2070.09 1464.85L1601.27 1949.05L1839.97 2109.22L1840.88 2109.82L2083.83 1585.66L2083.41 1581.91Z" fill="#33B6BA"/>
<path d="M1842.36 2108.43L1840.92 2109.24L1029.75 2588.82L1028.57 2587.21L1602.64 1947.58L1603.33 1948.02L1842.36 2108.43ZM1034.39 2583.71L1838.59 2108.28L1602.96 1950.19L1034.39 2583.71Z" fill="#33B6BA"/>
<path d="M2174.78 2385.21L1843.18 2109.31L2142.37 2100.31L2142.14 2098.26L1840.42 2107.34L1837.8 2107.42L2175.1 2388.07L2174.78 2385.21Z" fill="#33B6BA"/>
<path d="M2163.46 2983.79L2165.45 2983.56L1842.64 2111.48L2175.1 2388.07L2174.78 2385.21L1841.06 2107.53L1838.3 2105.26L2163.46 2983.79Z" fill="#33B6BA"/>
<path d="M1398.19 3070.83L1400.48 3070.57L1840.39 2110.92L2163.45 2983.79L2165.45 2983.56L1841.37 2107.99L1840.58 2105.79L1398.19 3070.83Z" fill="#33B6BA"/>
<line x1="543.341" y1="1322.95" x2="1149.25" y2="1042.58" stroke="#42B1B4" stroke-width="3.38885"/>
<path d="M542.757 1327.62L615.732 860.159" stroke="#42B1B4" stroke-width="3.38885"/>
<path d="M1776.9 81.3456C1781.98 80.7685 1786.59 84.692 1787.21 90.1072C1787.82 95.5224 1784.21 100.382 1779.13 100.959C1774.06 101.536 1769.47 97.6098 1768.85 92.1947C1768.24 86.7795 1771.83 81.9227 1776.9 81.3456Z" fill="#33B6BA"/>
<path d="M1379.41 694.476C1388.12 693.485 1396.02 700.2 1397.07 709.495C1398.13 718.79 1391.94 727.107 1383.23 728.098C1374.55 729.086 1366.65 722.37 1365.59 713.076C1364.54 703.781 1370.72 695.463 1379.41 694.476Z" fill="#33B6BA"/>
<path d="M1797.82 88.9327C1796.49 77.2674 1786.55 68.8185 1775.62 70.0618C1764.69 71.305 1756.91 81.7696 1758.23 93.4349C1759.56 105.1 1769.5 113.549 1780.43 112.306C1791.36 111.062 1799.14 100.598 1797.82 88.9327Z" fill="#33B6BA"/>
<path d="M1798.42 88.8642C1797.05 76.8418 1786.81 68.1344 1775.54 69.4157C1764.28 70.697 1756.25 81.4819 1757.62 93.5042C1758.99 105.526 1769.23 114.234 1780.5 112.952C1791.76 111.671 1799.79 100.886 1798.42 88.8642Z" fill="#33B6BA"/>
<path d="M1661.13 446.004C1669.06 445.103 1676.25 451.216 1677.21 459.676C1678.18 468.136 1672.54 475.708 1664.62 476.609C1656.71 477.508 1649.52 471.394 1648.56 462.935C1647.6 454.475 1653.23 446.903 1661.13 446.004Z" fill="#33B6BA"/>
<path d="M1379.98 699.518C1386.07 698.826 1391.61 703.517 1392.35 710.009C1393.09 716.502 1388.77 722.343 1382.66 723.037C1376.6 723.727 1371.05 719.036 1370.31 712.516C1369.58 706.05 1373.92 700.207 1379.98 699.518Z" fill="#33B6BA"/>
<path d="M1929.14 518.238C1933.58 517.732 1937.58 521.153 1938.11 525.868C1938.65 530.609 1935.5 534.843 1931.08 535.345C1926.67 535.848 1922.64 532.403 1922.11 527.688C1921.57 522.946 1924.72 518.74 1929.14 518.238Z" fill="#33B6BA"/>
<path d="M1792.87 89.4951C1791.87 80.7462 1784.42 74.4095 1776.22 75.3419C1768.02 76.2744 1762.18 84.1229 1763.18 92.8718C1764.17 101.621 1771.63 107.957 1779.82 107.025C1788.02 106.092 1793.86 98.2441 1792.87 89.4951Z" fill="#33B6BA"/>
<path d="M1926.62 496.123C1942.5 494.317 1956.94 506.592 1958.86 523.538C1960.79 540.484 1949.48 555.715 1933.6 557.522C1917.75 559.325 1903.31 547.022 1901.38 530.076C1899.45 513.13 1910.76 497.926 1926.62 496.123Z" fill="#33B6BA"/>
<path d="M1775.69 70.6769C1786.29 69.471 1795.92 77.6818 1797.21 88.9971C1798.49 100.312 1790.95 110.475 1780.35 111.681C1769.75 112.887 1760.12 104.677 1758.83 93.3614C1757.55 82.0461 1765.11 71.88 1775.69 70.6769Z" fill="#33B6BA"/>
<path d="M1928.18 509.778C1936.99 508.776 1944.97 515.564 1946.04 524.966C1947.11 534.369 1940.85 542.776 1932.04 543.778C1923.26 544.777 1915.27 537.99 1914.2 528.587C1913.14 519.212 1919.41 510.775 1928.18 509.778Z" fill="#33B6BA"/>
<path d="M1660.67 441.935C1670.69 440.795 1679.83 448.543 1681.05 459.266C1682.27 469.961 1675.13 479.588 1665.08 480.73C1655.08 481.867 1645.94 474.12 1644.72 463.397C1643.5 452.675 1650.67 443.072 1660.67 441.935Z" fill="#33B6BA"/>
<path d="M1908.29 898.406C1924.17 896.6 1938.61 908.902 1940.54 925.848C1942.47 942.821 1931.16 958.026 1915.28 959.832C1899.4 961.638 1884.96 949.362 1883.03 932.389C1881.13 915.413 1892.41 900.212 1908.29 898.406Z" fill="#33B6BA"/>
<path d="M1927.97 508.003C1937.69 506.897 1946.53 514.434 1947.7 524.78C1948.89 535.179 1941.94 544.456 1932.24 545.559C1922.52 546.664 1913.72 539.152 1912.54 528.779C1911.36 518.407 1918.25 509.108 1927.97 508.003Z" fill="#33B6BA"/>
<path d="M1909.86 912.199C1918.6 911.206 1926.52 917.945 1927.58 927.294C1928.65 936.643 1922.44 944.99 1913.7 945.984C1904.97 946.977 1897.02 940.24 1895.95 930.892C1894.89 921.57 1901.15 913.19 1909.86 912.199Z" fill="#33B6BA"/>
<path d="M1927.47 503.605C1939.49 502.239 1950.37 511.535 1951.82 524.305C1953.28 537.129 1944.73 548.58 1932.74 549.944C1920.75 551.308 1909.88 542.038 1908.42 529.241C1906.97 516.471 1915.51 504.966 1927.47 503.605Z" fill="#33B6BA"/>
<path d="M1909.74 911.152C1919 910.098 1927.44 917.271 1928.57 927.185C1929.7 937.099 1923.09 945.984 1913.82 947.037C1904.56 948.091 1896.12 940.918 1894.99 931.004C1893.86 921.09 1900.47 912.205 1909.74 911.152Z" fill="#33B6BA"/>
<path d="M1662.12 454.654C1665.58 454.261 1668.69 456.908 1669.11 460.599C1669.53 464.29 1667.09 467.569 1663.63 467.963C1660.2 468.353 1657.08 465.706 1656.67 462.015C1656.25 458.351 1658.69 455.045 1662.12 454.654Z" fill="#33B6BA"/>
<path d="M1661.88 452.551C1666.42 452.034 1670.53 455.552 1671.08 460.374C1671.63 465.224 1668.39 469.576 1663.87 470.09C1659.36 470.604 1655.22 467.09 1654.67 462.24C1654.12 457.418 1657.34 453.068 1661.88 452.551Z" fill="#33B6BA"/>
<path d="M1925.54 927.532C1924.62 919.423 1917.71 913.55 1910.11 914.414C1902.52 915.279 1897.1 922.553 1898.03 930.662C1898.95 938.771 1905.86 944.645 1913.45 943.78C1921.05 942.916 1926.46 935.642 1925.54 927.532Z" fill="#33B6BA"/>
<path d="M1379.92 698.926C1386.33 698.197 1392.13 703.131 1392.91 709.974C1393.68 716.79 1389.14 722.902 1382.73 723.631C1376.34 724.358 1370.53 719.423 1369.76 712.607C1368.98 705.764 1373.53 699.653 1379.92 698.926Z" fill="#33B6BA"/>
<path d="M1910.36 916.592C1916.82 915.857 1922.71 920.837 1923.5 927.761C1924.28 934.685 1919.67 940.859 1913.2 941.594C1906.74 942.329 1900.86 937.349 1900.07 930.425C1899.31 923.499 1903.92 917.325 1910.36 916.592Z" fill="#33B6BA"/>
<path d="M1743.2 1572.46C1747.99 1571.92 1752.41 1575.64 1752.99 1580.79C1753.58 1585.94 1750.14 1590.56 1745.32 1591.11C1740.5 1591.65 1736.11 1587.92 1735.52 1582.78C1734.96 1577.63 1738.38 1573.01 1743.2 1572.46Z" fill="#33B6BA"/>
<path d="M1921.6 927.98C1920.94 922.192 1916.01 918 1910.59 918.617C1905.17 919.234 1901.3 924.426 1901.96 930.214C1902.62 936.002 1907.55 940.194 1912.97 939.577C1918.4 938.96 1922.26 933.768 1921.6 927.98Z" fill="#33B6BA"/>
<path d="M1742.85 1569.37C1749.26 1568.64 1755.1 1573.62 1755.87 1580.47C1756.66 1587.34 1752.09 1593.48 1745.67 1594.21C1739.24 1594.94 1733.4 1589.98 1732.62 1583.11C1731.85 1576.27 1736.41 1570.1 1742.85 1569.37Z" fill="#33B6BA"/>
<path d="M1296.31 1251.04C1302.19 1250.37 1307.57 1254.91 1308.29 1261.22C1309 1267.52 1304.81 1273.18 1298.91 1273.86C1293.02 1274.52 1287.65 1269.98 1286.93 1263.65C1286.24 1257.34 1290.43 1251.71 1296.31 1251.04Z" fill="#33B6BA"/>
<path d="M1910.71 919.637C1915.58 919.083 1920.07 922.857 1920.67 928.11C1921.27 933.337 1917.76 938.047 1912.86 938.604C1907.97 939.161 1903.5 935.385 1902.9 930.132C1902.33 924.875 1905.81 920.194 1910.71 919.637Z" fill="#33B6BA"/>
<path d="M1294.83 1238.02C1307.45 1236.59 1318.92 1246.34 1320.45 1259.81C1321.99 1273.31 1313 1285.38 1300.38 1286.81C1287.76 1288.25 1276.29 1278.5 1274.76 1265C1273.23 1251.56 1282.21 1239.46 1294.83 1238.02Z" fill="#33B6BA"/>
<path d="M1743.35 1573.79C1747.49 1573.31 1751.26 1576.52 1751.76 1580.93C1752.27 1585.38 1749.31 1589.34 1745.17 1589.82C1741.03 1590.29 1737.24 1587.09 1736.74 1582.64C1736.24 1578.22 1739.21 1574.26 1743.35 1573.79Z" fill="#33B6BA"/>
<path d="M1186.18 1602.77C1190.62 1602.27 1194.65 1605.71 1195.18 1610.42C1195.72 1615.14 1192.57 1619.4 1188.13 1619.91C1183.71 1620.41 1179.69 1616.99 1179.15 1612.25C1178.62 1607.53 1181.76 1603.27 1186.18 1602.77Z" fill="#33B6BA"/>
<path d="M1791.34 1751.33C1803.1 1750 1813.78 1759.1 1815.2 1771.62C1816.63 1784.18 1808.27 1795.42 1796.51 1796.76C1784.77 1798.09 1774.07 1789.02 1772.64 1776.47C1771.22 1763.94 1779.6 1752.67 1791.34 1751.33Z" fill="#33B6BA"/>
<path d="M1790.84 1746.97C1804.88 1745.37 1817.62 1756.2 1819.32 1771.18C1821.03 1786.16 1811.04 1799.58 1797.01 1801.17C1783 1802.77 1770.25 1791.91 1768.55 1776.95C1766.85 1761.98 1776.86 1748.56 1790.84 1746.97Z" fill="#33B6BA"/>
<path d="M1742.35 1565C1751.03 1564.01 1758.91 1570.73 1759.96 1580C1761.01 1589.27 1754.85 1597.61 1746.17 1598.6C1737.46 1599.59 1729.59 1592.87 1728.53 1583.58C1727.48 1574.31 1733.66 1565.99 1742.35 1565Z" fill="#33B6BA"/>
<path d="M1743.04 1571.09C1748.57 1570.46 1753.59 1574.75 1754.25 1580.62C1754.92 1586.52 1751 1591.83 1745.47 1592.46C1739.94 1593.08 1734.93 1588.8 1734.26 1582.9C1733.59 1577.02 1737.54 1571.72 1743.04 1571.09Z" fill="#33B6BA"/>
<path d="M1791.81 1755.51C1801.41 1754.42 1810.13 1761.83 1811.29 1772.07C1812.46 1782.3 1805.62 1791.49 1796.03 1792.58C1786.44 1793.67 1777.72 1786.26 1776.55 1776.02C1775.42 1765.8 1782.22 1756.6 1791.81 1755.51Z" fill="#33B6BA"/>
<path d="M1185.22 1594.31C1194.06 1593.31 1202.04 1600.12 1203.11 1609.52C1204.18 1618.92 1197.93 1627.36 1189.09 1628.36C1180.28 1629.37 1172.3 1622.55 1171.23 1613.15C1170.16 1603.75 1176.43 1595.31 1185.22 1594.31Z" fill="#33B6BA"/>
<path d="M1791.12 1749.37C1803.89 1747.91 1815.5 1757.81 1817.05 1771.44C1818.6 1785.07 1809.51 1797.32 1796.73 1798.78C1783.96 1800.23 1772.38 1790.36 1770.83 1776.7C1769.28 1763.07 1778.34 1750.82 1791.12 1749.37Z" fill="#33B6BA"/>
<path d="M1905.16 2471.47C1915.86 2470.25 1925.57 2478.53 1926.87 2489.96C1928.17 2501.38 1920.57 2511.63 1909.86 2512.85C1899.16 2514.07 1889.45 2505.78 1888.15 2494.36C1886.87 2482.94 1894.45 2472.69 1905.16 2471.47Z" fill="#33B6BA"/>
<path d="M1792.24 1759.31C1799.89 1758.44 1806.83 1764.36 1807.76 1772.5C1808.69 1780.66 1803.25 1787.96 1795.6 1788.83C1787.98 1789.7 1781.04 1783.8 1780.11 1775.64C1779.19 1767.48 1784.62 1760.17 1792.24 1759.31Z" fill="#33B6BA"/>
<path d="M1906.33 2481.76C1911.7 2481.15 1916.6 2485.29 1917.25 2491.05C1917.91 2496.79 1914.07 2501.92 1908.69 2502.53C1903.31 2503.14 1898.42 2499.01 1897.77 2493.27C1897.14 2487.53 1900.95 2482.37 1906.33 2481.76Z" fill="#33B6BA"/>
<path d="M1562 2392.25C1566.67 2391.72 1570.97 2395.35 1571.54 2400.39C1572.12 2405.43 1568.77 2409.93 1564.07 2410.46C1559.35 2411 1555.08 2407.37 1554.5 2402.33C1553.93 2397.29 1557.28 2392.79 1562 2392.25Z" fill="#33B6BA"/>
<path d="M1820.4 1771.03C1818.63 1755.42 1805.33 1744.12 1790.71 1745.78C1776.08 1747.44 1765.66 1761.44 1767.44 1777.05C1769.21 1792.66 1782.51 1803.97 1797.14 1802.3C1811.76 1800.64 1822.18 1786.64 1820.4 1771.03Z" fill="#33B6BA"/>
<path d="M1562.39 2395.72C1565.27 2395.4 1567.93 2397.63 1568.28 2400.73C1568.63 2403.83 1566.54 2406.6 1563.67 2406.93C1560.76 2407.26 1558.1 2405.03 1557.75 2401.93C1557.4 2398.86 1559.49 2396.05 1562.39 2395.72Z" fill="#33B6BA"/>
<path d="M1025.15 2066.37C1031.39 2065.66 1037.05 2070.47 1037.81 2077.13C1038.56 2083.78 1034.13 2089.74 1027.89 2090.45C1021.66 2091.16 1015.99 2086.35 1015.24 2079.69C1014.5 2073.04 1018.94 2067.07 1025.15 2066.37Z" fill="#33B6BA"/>
<path d="M1905.53 2474.78C1914.55 2473.76 1922.7 2480.71 1923.79 2490.31C1924.88 2499.9 1918.5 2508.51 1909.49 2509.53C1900.52 2510.55 1892.34 2503.6 1891.25 2494.01C1890.16 2484.42 1896.57 2475.8 1905.53 2474.78Z" fill="#33B6BA"/>
<path d="M1906.6 2484.16C1910.74 2483.68 1914.48 2486.89 1914.98 2491.31C1915.48 2495.73 1912.56 2499.66 1908.42 2500.13C1904.3 2500.6 1900.54 2497.4 1900.04 2493.01C1899.53 2488.59 1902.48 2484.62 1906.6 2484.16Z" fill="#33B6BA"/>
<path d="M1024.66 2062.09C1033.12 2061.13 1040.8 2067.68 1041.82 2076.7C1042.85 2085.73 1036.84 2093.83 1028.38 2094.79C1019.93 2095.76 1012.25 2089.21 1011.23 2080.18C1010.2 2071.16 1016.21 2063.05 1024.66 2062.09Z" fill="#33B6BA"/>
<path d="M1561.47 2387.59C1568.56 2386.78 1575.05 2392.3 1575.91 2399.89C1576.77 2407.49 1571.72 2414.29 1564.6 2415.1C1557.48 2415.91 1551 2410.42 1550.13 2402.82C1549.27 2395.23 1554.35 2388.4 1561.47 2387.59Z" fill="#33B6BA"/>
<path d="M1016.27 2681.42C1015.56 2675.23 1010.29 2670.75 1004.49 2671.41C998.689 2672.07 994.557 2677.62 995.261 2683.81C995.965 2690 1001.24 2694.49 1007.04 2693.83C1012.84 2693.17 1016.97 2687.61 1016.27 2681.42Z" fill="#33B6BA"/>
<path d="M1562 2392.22C1566.72 2391.69 1570.97 2395.33 1571.54 2400.36C1572.11 2405.4 1568.79 2409.9 1564.07 2410.44C1559.32 2410.98 1555.07 2407.34 1554.5 2402.3C1553.93 2397.29 1557.25 2392.76 1562 2392.22Z" fill="#33B6BA"/>
<path d="M1202.61 2785.52C1211.47 2784.51 1219.54 2791.37 1220.61 2800.83C1221.69 2810.31 1215.37 2818.81 1206.51 2819.81C1197.65 2820.82 1189.56 2813.96 1188.48 2804.48C1187.4 2795.02 1193.75 2786.53 1202.61 2785.52Z" fill="#33B6BA"/>
<path d="M1004.36 2670.22C1010.75 2669.5 1016.58 2674.46 1017.35 2681.27C1018.13 2688.09 1013.56 2694.23 1007.17 2694.96C1000.78 2695.68 994.953 2690.72 994.177 2683.91C993.402 2677.09 997.946 2670.95 1004.36 2670.22Z" fill="#33B6BA"/>
<path d="M1906.23 2480.87C1912.09 2480.2 1917.38 2484.73 1918.09 2490.96C1918.8 2497.18 1914.63 2502.78 1908.8 2503.45C1902.96 2504.11 1897.64 2499.59 1896.93 2493.36C1896.23 2487.14 1900.4 2481.53 1906.23 2480.87Z" fill="#33B6BA"/>
<path d="M1778.8 2867.84C1790.01 2866.56 1800.2 2875.23 1801.57 2887.22C1802.93 2899.18 1794.97 2909.93 1783.74 2911.21C1772.55 2912.48 1762.34 2903.82 1760.97 2891.83C1759.61 2879.84 1767.62 2869.11 1778.8 2867.84Z" fill="#33B6BA"/>
<path d="M1905.29 2472.63C1915.39 2471.48 1924.59 2479.3 1925.81 2490.08C1927.04 2500.85 1919.86 2510.54 1909.73 2511.69C1899.64 2512.84 1890.44 2505.04 1889.21 2494.24C1888.01 2483.46 1895.19 2473.77 1905.29 2472.63Z" fill="#33B6BA"/>
<path d="M1779.62 2875.03C1787.12 2874.18 1793.92 2879.98 1794.82 2887.96C1795.73 2895.96 1790.41 2903.14 1782.92 2903.99C1775.44 2904.84 1768.62 2899.04 1767.71 2891.04C1766.8 2883.04 1772.15 2875.88 1779.62 2875.03Z" fill="#33B6BA"/>
<path d="M1561.75 2390.09C1567.56 2389.43 1572.85 2393.93 1573.56 2400.16C1574.27 2406.38 1570.12 2411.93 1564.31 2412.59C1558.48 2413.25 1553.19 2408.75 1552.48 2402.55C1551.77 2396.33 1555.92 2390.76 1561.75 2390.09Z" fill="#33B6BA"/>
<path d="M1561.25 2385.65C1569.35 2384.72 1576.74 2391.01 1577.73 2399.68C1578.72 2408.36 1572.93 2416.14 1564.82 2417.06C1556.69 2417.98 1549.3 2411.7 1548.32 2403.03C1547.33 2394.35 1553.12 2386.57 1561.25 2385.65Z" fill="#33B6BA"/>
<path d="M1778.43 2864.5C1791.38 2863.02 1803.13 2873.04 1804.7 2886.83C1806.27 2900.65 1797.06 2913.03 1784.11 2914.5C1771.19 2915.97 1759.44 2905.95 1757.87 2892.16C1756.3 2878.37 1765.5 2865.97 1778.43 2864.5Z" fill="#33B6BA"/>
<path d="M1203.29 2791.47C1209.07 2790.81 1214.31 2795.29 1215.01 2801.46C1215.71 2807.63 1211.59 2813.18 1205.83 2813.83C1200.05 2814.49 1194.78 2810.01 1194.08 2803.84C1193.38 2797.67 1197.51 2792.13 1203.29 2791.47Z" fill="#33B6BA"/>
<path d="M211.044 240.936C219.198 240.008 226.615 246.315 227.605 255.017C228.597 263.746 222.786 271.556 214.632 272.484C206.477 273.411 199.06 267.105 198.068 258.376C197.049 249.65 202.864 241.866 211.044 240.936Z" fill="#33B6BA"/>
<path d="M546.296 1302.43C554.476 1301.5 561.921 1307.83 562.914 1316.56C563.907 1325.29 558.073 1333.13 549.894 1334.06C541.714 1334.99 534.294 1328.66 533.301 1319.93C532.305 1311.17 538.142 1303.36 546.296 1302.43Z" fill="#33B6BA"/>
<path d="M210.873 239.429C219.81 238.413 227.91 245.324 228.995 254.861C230.079 264.398 223.713 272.954 214.802 273.968C205.89 274.982 197.768 268.101 196.68 258.536C195.571 249.002 201.937 240.446 210.873 239.429Z" fill="#33B6BA"/>
<path d="M211.338 243.522C218.155 242.747 224.329 248.021 225.153 255.269C225.981 262.543 221.148 269.069 214.332 269.844C207.516 270.619 201.341 265.345 200.514 258.071C199.664 250.827 204.522 244.298 211.338 243.522Z" fill="#33B6BA"/>
<path d="M612.49 834.103C621.629 833.063 629.926 840.143 631.036 849.895C632.145 859.648 625.624 868.413 616.51 869.449C607.371 870.489 599.048 863.412 597.939 853.66C596.83 843.907 603.326 835.145 612.49 834.103Z" fill="#33B6BA"/>
<path d="M1232.45 237.884C1240.43 236.977 1247.68 243.138 1248.65 251.652C1249.62 260.165 1243.94 267.797 1235.96 268.704C1228.01 269.609 1220.76 263.447 1219.79 254.934C1218.82 246.42 1224.5 238.788 1232.45 237.884Z" fill="#33B6BA"/>
<path d="M793.19 567.828C796.901 567.406 800.27 570.271 800.72 574.231C801.171 578.191 798.531 581.739 794.82 582.161C791.134 582.58 787.743 579.746 787.29 575.758C786.864 571.795 789.504 568.248 793.19 567.828Z" fill="#33B6BA"/>
<path d="M210.861 239.321C219.848 238.299 228.027 245.228 229.121 254.846C230.211 264.437 223.801 273.053 214.814 274.075C205.826 275.097 197.645 268.141 196.554 258.55C195.46 248.932 201.873 240.343 210.861 239.321Z" fill="#33B6BA"/>
<path d="M1232.36 237.019C1240.79 236.06 1248.44 242.586 1249.46 251.557C1250.48 260.529 1244.47 268.635 1236.06 269.591C1227.66 270.547 1219.98 264.024 1218.96 255.026C1217.94 246.027 1223.93 237.978 1232.36 237.019Z" fill="#33B6BA"/>
<path d="M792.949 565.679C797.771 565.13 802.133 568.864 802.719 574.01C803.304 579.156 799.891 583.774 795.069 584.322C790.272 584.868 785.887 581.164 785.299 575.991C784.714 570.845 788.152 566.224 792.949 565.679Z" fill="#33B6BA"/>
<path d="M210.5 236.134C221.128 234.925 230.785 243.16 232.075 254.502C233.368 265.871 225.807 276.064 215.179 277.273C204.55 278.482 194.894 270.247 193.6 258.878C192.285 247.539 199.871 237.343 210.5 236.134Z" fill="#33B6BA"/>
<path d="M791.04 548.922C804.546 547.386 816.782 557.838 818.418 572.224C820.058 586.638 810.456 599.574 796.975 601.107C783.494 602.64 771.233 592.191 769.594 577.778C767.954 563.364 777.559 550.455 791.04 548.922Z" fill="#33B6BA"/>
<path d="M1232.36 236.994C1240.81 236.032 1248.46 242.585 1249.49 251.583C1250.51 260.581 1244.5 268.661 1236.07 269.62C1227.63 270.579 1219.99 264.053 1218.96 255.055C1217.94 246.056 1223.92 237.953 1232.36 236.994Z" fill="#33B6BA"/>
<path d="M1232.01 234.006C1242.01 232.869 1251.09 240.568 1252.31 251.264C1253.52 261.933 1246.4 271.502 1236.4 272.639C1226.41 273.776 1217.35 266.047 1216.13 255.378C1214.92 244.683 1222.04 235.14 1232.01 234.006Z" fill="#33B6BA"/>
<path d="M1905.31 15.9815C1904.36 18.4901 1903.99 21.2619 1904.32 24.1715C1904.65 27.0542 1905.64 29.6708 1907.12 31.9038L1905.31 15.9815Z" fill="#33B6BA"/>
<path d="M1864.38 638.009C1868.17 637.579 1871.62 640.515 1872.08 644.557C1872.55 648.625 1869.84 652.262 1866.05 652.693C1862.27 653.123 1858.81 650.187 1858.35 646.119C1857.86 642.08 1860.57 638.443 1864.38 638.009Z" fill="#33B6BA"/>
<path d="M1231.27 227.514C1244.6 225.998 1256.72 236.327 1258.34 250.551C1259.96 264.776 1250.47 277.563 1237.14 279.079C1223.81 280.595 1211.69 270.266 1210.07 256.041C1208.45 241.816 1217.95 229.03 1231.27 227.514Z" fill="#33B6BA"/>
<path d="M1156.28 1015.84C1169.66 1014.32 1181.86 1024.69 1183.48 1038.97C1185.11 1053.28 1175.55 1066.13 1162.17 1067.65C1148.77 1069.17 1136.59 1058.8 1134.96 1044.49C1133.34 1030.19 1142.85 1017.37 1156.28 1015.84Z" fill="#33B6BA"/>
<path d="M792.045 557.758C800.957 556.744 809.056 563.655 810.138 573.166C811.223 582.703 804.879 591.229 795.967 592.243C787.056 593.256 778.959 586.372 777.874 576.835C776.793 567.325 783.134 558.772 792.045 557.758Z" fill="#33B6BA"/>
<path d="M1249.46 251.553C1248.44 242.566 1240.78 236.057 1232.36 237.015C1223.94 237.973 1217.94 246.035 1218.96 255.022C1219.98 264.009 1227.64 270.518 1236.06 269.56C1244.48 268.602 1250.48 260.54 1249.46 251.553Z" fill="#33B6BA"/>
<path d="M1862.73 623.517C1874.02 622.234 1884.32 630.968 1885.69 643.038C1887.07 655.108 1879.01 665.929 1867.7 667.216C1856.42 668.499 1846.15 659.789 1844.77 647.692C1843.4 635.623 1851.45 624.801 1862.73 623.517Z" fill="#33B6BA"/>
<path d="M1158.11 1031.93C1163.16 1031.35 1167.77 1035.27 1168.38 1040.66C1169 1046.08 1165.38 1050.94 1160.33 1051.51C1155.26 1052.09 1150.67 1048.16 1150.05 1042.75C1149.42 1037.36 1153.03 1032.5 1158.11 1031.93Z" fill="#33B6BA"/>
<path d="M1903.29 -1.71825C1895.54 4.32114 1891.03 14.5497 1892.28 25.5416C1893.53 36.5336 1900.22 45.4602 1909.13 49.6045L1903.29 -1.71825Z" fill="#33B6BA"/>
<path d="M1863.01 625.917C1873.08 624.771 1882.22 632.545 1883.45 643.295C1884.67 654.045 1877.51 663.701 1867.43 664.847C1857.39 665.989 1848.24 658.215 1847.02 647.438C1845.79 636.689 1852.93 627.062 1863.01 625.917Z" fill="#33B6BA"/>
<path d="M792.054 557.845C800.94 556.835 808.983 563.697 810.062 573.181C811.141 582.664 804.819 591.161 795.958 592.168C787.097 593.176 779.028 586.316 777.95 576.833C776.871 567.35 783.193 558.853 792.054 557.845Z" fill="#33B6BA"/>
<path d="M1157.68 1028.18C1164.68 1027.39 1171.07 1032.83 1171.92 1040.29C1172.77 1047.78 1167.79 1054.51 1160.77 1055.31C1153.75 1056.11 1147.35 1050.67 1146.5 1043.18C1145.65 1035.69 1150.64 1028.98 1157.68 1028.18Z" fill="#33B6BA"/>
<path d="M1156.66 1019.21C1168.3 1017.89 1178.89 1026.92 1180.3 1039.34C1181.72 1051.78 1173.42 1062.96 1161.78 1064.28C1150.12 1065.61 1139.53 1056.58 1138.11 1044.13C1136.7 1031.71 1144.99 1020.54 1156.66 1019.21Z" fill="#33B6BA"/>
<path d="M1158.09 1031.79C1163.21 1031.21 1167.89 1035.18 1168.51 1040.65C1169.13 1046.15 1165.47 1051.06 1160.35 1051.65C1155.2 1052.23 1150.55 1048.26 1149.93 1042.76C1149.31 1037.29 1152.94 1032.38 1158.09 1031.79Z" fill="#33B6BA"/>
<path d="M1616.47 1947.35C1615.55 1939.3 1608.7 1933.47 1601.15 1934.32C1593.61 1935.18 1588.24 1942.4 1589.15 1950.45C1590.07 1958.5 1596.93 1964.33 1604.47 1963.47C1612.01 1962.62 1617.39 1955.39 1616.47 1947.35Z" fill="#33B6BA"/>
<path d="M1156.6 1018.65C1168.54 1017.29 1179.36 1026.54 1180.8 1039.25C1182.26 1052.02 1173.76 1063.44 1161.85 1064.8C1149.9 1066.15 1139.06 1056.91 1137.61 1044.17C1136.14 1031.45 1144.66 1020 1156.6 1018.65Z" fill="#33B6BA"/>
<path d="M1601.99 1941.63C1605.72 1941.2 1609.17 1944.11 1609.63 1948.12C1610.09 1952.14 1607.4 1955.75 1603.64 1956.17C1599.9 1956.6 1596.45 1953.69 1596 1949.68C1595.54 1945.66 1598.25 1942.05 1601.99 1941.63Z" fill="#33B6BA"/>
<path d="M812.603 2062.14C821.994 2061.07 830.49 2068.32 831.63 2078.34C832.77 2088.36 826.093 2097.33 816.727 2098.4C807.361 2099.46 798.84 2092.22 797.7 2082.2C796.56 2072.18 803.237 2063.2 812.603 2062.14Z" fill="#33B6BA"/>
<path d="M1861.61 613.655C1878 611.792 1892.92 624.476 1894.91 641.988C1896.9 659.5 1885.23 675.208 1868.82 677.075C1852.44 678.938 1837.52 666.28 1835.53 648.741C1833.54 631.23 1845.2 615.521 1861.61 613.655Z" fill="#33B6BA"/>
<path d="M1157.32 1025.04C1165.96 1024.05 1173.8 1030.72 1174.85 1039.94C1175.9 1049.18 1169.75 1057.43 1161.12 1058.42C1152.48 1059.4 1144.64 1052.73 1143.59 1043.49C1142.55 1034.3 1148.69 1026.02 1157.32 1025.04Z" fill="#33B6BA"/>
<path d="M1863.78 632.699C1870.34 631.953 1876.29 637.034 1877.08 644.012C1877.88 651.017 1873.22 657.277 1866.66 658.024C1860.12 658.768 1854.18 653.713 1853.38 646.708C1852.59 639.73 1857.24 633.443 1863.78 632.699Z" fill="#33B6BA"/>
<path d="M812.802 2063.89C821.285 2062.92 828.988 2069.5 830.015 2078.52C831.044 2087.57 825.008 2095.65 816.525 2096.62C808.068 2097.58 800.368 2091.03 799.341 2082.01C798.312 2072.96 804.345 2064.85 812.802 2063.89Z" fill="#33B6BA"/>
<path d="M1608.8 1948.22C1608.39 1944.69 1605.39 1942.14 1602.09 1942.52C1598.78 1942.89 1596.43 1946.05 1596.83 1949.58C1597.23 1953.11 1600.23 1955.66 1603.54 1955.29C1606.84 1954.91 1609.2 1951.75 1608.8 1948.22Z" fill="#33B6BA"/>
<path d="M1028.08 2577.53C1033.46 2576.91 1038.35 2581.08 1039.01 2586.82C1039.66 2592.56 1035.85 2597.71 1030.44 2598.32C1025.07 2598.94 1020.17 2594.77 1019.52 2589.03C1018.86 2583.3 1022.7 2578.14 1028.08 2577.53Z" fill="#33B6BA"/>
<path d="M1838.76 2093.39C1846.51 2092.51 1853.56 2098.5 1854.5 2106.77C1855.44 2115.04 1849.91 2122.47 1842.16 2123.35C1834.41 2124.23 1827.39 2118.23 1826.45 2109.96C1825.53 2101.69 1831.03 2094.27 1838.76 2093.39Z" fill="#33B6BA"/>
<path d="M1839.07 2096.14C1845.41 2095.42 1851.16 2100.3 1851.93 2107.07C1852.69 2113.8 1848.19 2119.88 1841.86 2120.6C1835.54 2121.32 1829.8 2116.43 1829.03 2109.67C1828.26 2102.91 1832.76 2096.86 1839.07 2096.14Z" fill="#33B6BA"/>
<path d="M1599.8 1922.44C1613.46 1920.89 1625.89 1931.46 1627.55 1946.06C1629.21 1960.66 1619.45 1973.75 1605.82 1975.3C1592.16 1976.85 1579.73 1966.29 1578.07 1951.69C1576.41 1937.08 1586.15 1924 1599.8 1922.44Z" fill="#33B6BA"/>
<path d="M1600.09 1925C1612.44 1923.6 1623.68 1933.15 1625.18 1946.35C1626.68 1959.56 1617.9 1971.39 1605.53 1972.8C1593.19 1974.2 1581.95 1964.64 1580.45 1951.44C1578.94 1938.24 1587.75 1926.41 1600.09 1925Z" fill="#33B6BA"/>
<path d="M1839.53 2100.15C1843.79 2099.67 1847.67 2102.94 1848.19 2107.49C1848.7 2112.02 1845.66 2116.1 1841.4 2116.59C1837.15 2117.07 1833.28 2113.77 1832.76 2109.24C1832.27 2104.69 1835.29 2100.63 1839.53 2100.15Z" fill="#33B6BA"/>
<path d="M1045.9 2586.03C1044.78 2576.23 1036.43 2569.13 1027.24 2570.17C1018.06 2571.22 1011.51 2580.01 1012.63 2589.82C1013.74 2599.62 1022.09 2606.72 1031.28 2605.68C1040.47 2604.63 1047.01 2595.84 1045.9 2586.03Z" fill="#33B6BA"/>
<path d="M1839.27 2097.86C1844.7 2097.25 1849.65 2101.43 1850.31 2107.25C1850.97 2113.04 1847.08 2118.23 1841.66 2118.85C1836.23 2119.47 1831.3 2115.28 1830.64 2109.49C1830.01 2103.66 1833.84 2098.48 1839.27 2097.86Z" fill="#33B6BA"/>
<path d="M1839.28 2097.97C1844.66 2097.36 1849.55 2101.52 1850.21 2107.26C1850.86 2113 1847.02 2118.16 1841.64 2118.77C1836.27 2119.38 1831.37 2115.22 1830.72 2109.48C1830.06 2103.71 1833.9 2098.58 1839.28 2097.97Z" fill="#33B6BA"/>
<path d="M1838.65 2092.44C1846.88 2091.51 1854.35 2097.86 1855.35 2106.65C1856.35 2115.43 1850.5 2123.3 1842.27 2124.23C1834.06 2125.17 1826.59 2118.81 1825.59 2110.03C1824.59 2101.27 1830.45 2093.38 1838.65 2092.44Z" fill="#33B6BA"/>
</g>
<defs>
<clipPath id="clip0_210_166">
<rect width="3070" height="1980" fill="white" transform="translate(0 3070) rotate(-90)"/>
</clipPath>
</defs>
</svg>
