<svg width="3070" height="1980" viewBox="0 0 3070 1980" fill="none" xmlns="http://www.w3.org/2000/svg">
<g clip-path="url(#clip0_18_221)">
<path d="M3317.21 1778.69L2979.18 1777.06L2366.58 1385.19L3310.91 1723.25L3310.66 1721.1L2359.11 1380.44L2358.15 1382.13L2978.26 1778.83L2978.53 1779.01L3317.43 1780.61L3317.21 1778.69Z" fill="#33B6BA"/>
<path d="M2997.68 1911.72L2980.02 1778.99L3317.43 1780.6L3317.21 1778.69L2978.85 1777.07L2977.65 1777.08L2995.66 1911.94L2997.68 1911.72Z" fill="#33B6BA"/>
<path d="M2978.52 1778.95L2608.08 1663.74L2607.9 1663.53L2357.94 1381.97L2359.33 1380.53L2979.42 1777.26L2978.52 1778.95ZM2609.29 1662.06L2972.17 1774.94L2364.27 1386.03L2609.29 1662.06Z" fill="#33B6BA"/>
<path d="M2585.49 1958.6L2545.33 1930.41L2977.97 1779.35L2995.67 1911.95L2997.69 1911.72L2979.88 1777.9L2979.71 1776.72L2541.09 1929.84L2582.53 1958.93L2585.49 1958.6Z" fill="#33B6BA"/>
<path d="M2538.66 1963.92L2543.97 1931.86L2582.52 1958.93L2585.49 1958.6L2542.45 1928.38L2536.56 1964.16L2538.66 1963.92Z" fill="#33B6BA"/>
<path d="M2541.78 1931.65L2607.92 1661.63L2609 1661.97L2981.92 1777.98L2979.19 1778.93L2541.78 1931.65ZM2609.41 1664.15L2544.63 1928.62L2975.74 1778.09L2609.41 1664.15Z" fill="#33B6BA"/>
<path d="M2223.15 1999.81L2143.26 1912.84L2542.01 1931.04L2536.56 1964.16L2538.66 1963.92L2544.22 1930.25L2544.4 1929.21L2140.99 1910.83L2138.55 1910.72L2220.67 2000.09L2223.15 1999.81Z" fill="#33B6BA"/>
<path d="M2112.56 2012.39L2141.38 1913.78L2220.68 2000.09L2223.16 1999.81L2141.68 1911.16L2140.43 1909.77L2110.38 2012.63L2112.56 2012.39Z" fill="#33B6BA"/>
<path d="M2544.02 1931.12L2543.14 1931.09L2137.32 1912.6L2610.2 1660.99L2544.02 1931.12ZM2144.5 1910.99L2542.43 1929.13L2607.19 1664.79L2144.5 1910.99Z" fill="#33B6BA"/>
<path d="M2138.91 1913.96L2139.94 1911.46L2358.42 1379.47L2359.54 1380.72L2610.28 1663.16L2609.2 1663.74L2138.91 1913.96ZM2359.03 1383.21L2142.87 1909.64L2607.11 1662.62L2359.03 1383.21Z" fill="#33B6BA"/>
<path d="M1493.7 2082.77L1489.26 1745.52L2138.41 1912.14L1941.54 2031.83L1946.15 2031.31L2141.44 1912.61L2143.41 1911.42L1488.49 1743.33L1487.17 1742.99L1491.62 2083.01L1493.7 2082.77Z" fill="#33B6BA"/>
<path d="M2142.88 1913.29L2140.61 1912.73L1486.56 1744.83L1487.37 1743.74L1807.71 1295.7L2142.88 1913.29ZM1489.87 1743.68L2138.93 1910.27L1807.46 1299.51L1489.87 1743.68Z" fill="#33B6BA"/>
<path d="M1946.15 2031.31L2139.2 1913.97L2110.38 2012.64L2112.57 2012.39L2141.9 1912.03L2142.61 1909.62L1941.52 2031.84L1946.15 2031.31Z" fill="#33B6BA"/>
<path d="M1487.35 1747.2L1487.19 1744.35L1457.56 1185.83L1459 1186.25L1809.18 1297.12L1487.35 1747.2ZM1459.75 1188.54L1489.08 1741.32L1805.99 1298.12L1459.75 1188.54Z" fill="#33B6BA"/>
<path d="M974.969 2141.77L1295.57 1795.78L1411.52 2092.12L1413.62 2091.88L1296.32 1792.07L971.951 2142.11L974.969 2141.77Z" fill="#33B6BA"/>
<path d="M1413.62 2091.88L1297.29 1794.57L1487.21 1745.5L1491.62 2083.01L1493.69 2082.77L1489.22 1743L1295.69 1793.01L1294.6 1793.28L1411.52 2092.12L1413.62 2091.88Z" fill="#33B6BA"/>
<path d="M1294.53 1795.29L1457.66 1186.96L1459.67 1187.15L1489.28 1744.98L1488.46 1745.2L1294.53 1795.29ZM1457.98 1193.65L1297.39 1792.56L1487.18 1743.53L1457.98 1193.65Z" fill="#33B6BA"/>
<path d="M933.965 2146.43L580.442 1908.06L1293.31 1795.32L971.952 2142.11L974.969 2141.77L1296.71 1794.57L1298.58 1792.52L577.706 1906.55L575.242 1906.96L930.921 2146.78L933.965 2146.43Z" fill="#33B6BA"/>
<path d="M576.479 1908.71L667.921 1561.71L669.032 1562.12L1299.77 1794.31L1296.1 1794.9L576.479 1908.71ZM669.365 1564.33L579.213 1906.36L1292.13 1793.59L669.365 1564.33Z" fill="#33B6BA"/>
<path d="M1297.71 1795.62L1295.54 1794.81L667.198 1563.53L667.771 1562.57L991.796 1024.28L1297.71 1795.62ZM670.111 1562.51L1294.16 1792.23L991.358 1028.83L670.111 1562.51Z" fill="#33B6BA"/>
<path d="M508.187 2194.86L578.492 1909.15L930.92 2146.78L933.964 2146.43L578.461 1906.72L577.194 1905.89L506.032 2195.1L508.187 2194.86Z" fill="#33B6BA"/>
<path d="M95.1004 2241.61L95.1263 2241.84L98.8172 2241.42L576.221 1909.82L506.032 2195.1L508.188 2194.86L579.463 1905.21L95.1004 2241.61Z" fill="#33B6BA"/>
<path d="M668.553 1565.11L667.708 1563.44L385.712 1004.75L993.262 1025.64L668.553 1565.11ZM389.053 1006.78L668.732 1560.92L989.837 1027.44L389.053 1006.78Z" fill="#33B6BA"/>
<path d="M667.93 1563.7L266.033 1204.73L387.474 1003.68L388.319 1005.35L669.578 1562.59L667.93 1563.7ZM268.638 1204.36L665.342 1558.7L387.32 1007.84L268.638 1204.36Z" fill="#33B6BA"/>
<path d="M180.836 1780.36L179.871 1780.04L75.2728 2067.27L75.7896 2071.81L181.134 1782.5L575.67 1907.83L95.102 2241.61L95.1278 2241.84L98.8188 2241.42L578.45 1908.29L580.044 1907.18L180.836 1780.36Z" fill="#33B6BA"/>
<path d="M578.559 1908.78L577.481 1908.42L177.789 1781.42L670.162 1561.27L669.647 1563.22L578.559 1908.78ZM183.211 1781.11L577.126 1906.26L667.144 1564.74L183.211 1781.11Z" fill="#33B6BA"/>
<path d="M179.215 1782.93L179.48 1781.18L266.604 1202.58L268.036 1203.9L670.443 1563.27L669.093 1563.88L179.215 1782.93ZM268.066 1206.55L181.791 1779.67L666.867 1562.78L268.066 1206.55Z" fill="#33B6BA"/>
<path d="M3110.19 -42.6787L2812.9 210.951L1756.43 547.381L3097.3 -156.006L3097.07 -158L1747.47 548.732L1747.96 550.595L2813.47 212.83L2813.79 212.768L3110.46 -40.3056L3110.19 -42.6787Z" fill="#33B6BA"/>
<path d="M3170.26 486.672L2814.88 212.785L3110.43 -39.3426L3110.16 -41.7157L2812.62 212.122L2811.75 212.86L3170.57 489.399L3170.26 486.672Z" fill="#33B6BA"/>
<path d="M2255.7 386.255L2255.4 386.238L1752.91 549.179L1752.91 547.261L2813.14 211.886L2813.73 213.712L2255.7 386.255ZM1752.91 549.179L2255.42 384.267L2806.14 214.856L1752.91 549.179Z" fill="#33B6BA"/>
<path d="M3276.86 1423.94L2818.53 1233.92L3215.92 888.204L3215.66 885.856L2816 1233.52L2814.86 1234.52L3277.11 1426.16L3276.86 1423.94Z" fill="#33B6BA"/>
<path d="M3196.64 718.628L2496.78 792.857L2813.64 214.333L3170.57 489.399L3170.26 486.672L2813.98 212.07L2812.99 211.312L2494.08 793.573L2493.22 795.179L3196.85 720.521L3196.64 718.628Z" fill="#33B6BA"/>
<path d="M3215.66 885.854L2816.87 1232.76L2496.83 794.793L3196.85 720.521L3196.64 718.628L2494.92 793.068L2493.19 793.239L2815.84 1234.76L2816.52 1235.68L3215.92 888.201L3215.66 885.854Z" fill="#33B6BA"/>
<path d="M3058.95 1904.75L3291.65 1554L3291.3 1550.9L3056.36 1905.04L3058.95 1904.75Z" fill="#33B6BA"/>
<path d="M2495.12 795.352L2494.19 793.847L2217.37 615.692L2818.09 207.069L2816.74 209.525L2495.12 795.352ZM2220.28 616.563L2495 791.352L2813.56 211.113L2220.28 616.563Z" fill="#33B6BA"/>
<path d="M3044.13 1906.43L2818.35 1235.96L3277.11 1426.16L3276.86 1423.94L2817.13 1233.34L2815.04 1232.46L3042.06 1906.67L3044.13 1906.43Z" fill="#33B6BA"/>
<path d="M3058.95 1904.75L3291.65 1554L3291.3 1550.9L3056.36 1905.04L3058.95 1904.75Z" fill="#33B6BA"/>
<path d="M2983.14 1913.37L2426.34 1864.38L2816.4 1236.57L3042.06 1906.67L3044.13 1906.43L2817.68 1233.91L2816.99 1231.85L2423.73 1864.73L2422.95 1866.02L2973.54 1914.46L2983.14 1913.37Z" fill="#33B6BA"/>
<path d="M2818.81 1235.4L2816.58 1235.17L2025.76 1159.92L2027.61 1158.45L2495.22 792.575L2495.87 793.448L2818.81 1235.4ZM2030.78 1158.48L2814.59 1233.04L2494.75 795.416L2030.78 1158.48Z" fill="#33B6BA"/>
<path d="M2424.59 1867.22L2423.76 1865.68L2026.48 1158.07L2028.38 1158.26L2818.37 1233.4L2817.59 1234.7L2424.59 1867.22ZM2030.09 1160.34L2424.68 1863.22L2815 1235.02L2030.09 1160.34Z" fill="#33B6BA"/>
<path d="M2434.64 1975.75L2425.77 1866.29L2973.52 1914.46L2983.14 1913.37L2424.75 1864.26L2423.5 1864.15L2432.59 1975.99L2434.64 1975.75Z" fill="#33B6BA"/>
<path d="M2026.21 1162.06L2027.3 1158.92L2217.13 612.344L2496.35 794.206L2495.68 794.744L2026.21 1162.06ZM2218.45 616.458L2030.31 1156.33L2493.66 793.797L2218.45 616.458Z" fill="#33B6BA"/>
<path d="M1605.15 2070.1L1122.8 1603.08L2026.71 1161.06L1779.22 2050.3L1781.37 2050.05L2029.27 1159.42L2029.86 1157.35L1120.65 1601.97L1119.41 1602.57L1602.59 2070.39L1605.15 2070.1Z" fill="#33B6BA"/>
<path d="M1120.32 1604.28L1120.09 1602.98L988.454 813.226L990.1 813.78L2030.84 1159.03L1120.32 1604.28ZM991.022 816.13L1121.89 1601.37L2025.7 1159.39L991.022 816.13Z" fill="#33B6BA"/>
<path d="M1781.37 2050.05L2028.6 1161.85L2423.25 1864.81L2123.9 2011.1L2129.67 2010.44L2425.09 1866.09L2426.02 1865.62L2027.97 1156.55L1779.19 2050.3L1781.37 2050.05Z" fill="#33B6BA"/>
<path d="M2129.67 2010.44L2423.74 1866.73L2432.6 1975.99L2434.64 1975.75L2425.69 1865.12L2425.55 1863.68L2123.9 2011.1L2129.67 2010.44Z" fill="#33B6BA"/>
<path d="M1122.61 1605.51L1120.39 1603.53L480.243 1028.99L481.649 1028.39L990.534 813.296L990.729 814.527L1122.61 1605.51ZM483.882 1029.54L1119.6 1600.15L988.938 816.06L483.882 1029.54Z" fill="#33B6BA"/>
<path d="M971.736 2142.14L962.715 1842.08L1484.34 2083.84L1488.09 2083.41L962.107 1839.62L960.579 1838.9L969.688 2142.37L971.736 2142.14Z" fill="#33B6BA"/>
<path d="M1488.09 2083.41L963.113 1840.06L1121.28 1604.38L1602.59 2070.39L1605.15 2070.09L1120.95 1601.27L960.783 1839.97L960.177 1840.88L1484.34 2083.83L1488.09 2083.41Z" fill="#33B6BA"/>
<path d="M961.574 1842.36L960.755 1840.92L481.175 1029.75L482.787 1028.57L1122.42 1602.64L1121.98 1603.33L961.574 1842.36ZM486.287 1034.39L961.718 1838.59L1119.81 1602.96L486.287 1034.39Z" fill="#33B6BA"/>
<path d="M684.787 2174.78L960.686 1843.18L969.69 2142.37L971.737 2142.14L962.665 1840.42L962.584 1837.8L681.932 2175.1L684.787 2174.78Z" fill="#33B6BA"/>
<path d="M86.2131 2163.46L86.4399 2165.45L958.524 1842.64L681.933 2175.1L684.789 2174.78L962.466 1841.06L964.744 1838.3L86.2131 2163.46Z" fill="#33B6BA"/>
<path d="M-0.828857 1398.19L-0.56757 1400.48L959.084 1840.39L86.209 2163.45L86.4359 2165.45L962.005 1841.37L964.208 1840.58L-0.828857 1398.19Z" fill="#33B6BA"/>
<line x1="1747.05" y1="543.341" x2="2027.42" y2="1149.25" stroke="#42B1B4" stroke-width="3.38885"/>
<path d="M1742.38 542.757L2209.84 615.732" stroke="#42B1B4" stroke-width="3.38885"/>
<path d="M2988.65 1776.9C2989.23 1781.98 2985.31 1786.59 2979.89 1787.21C2974.48 1787.82 2969.62 1784.21 2969.04 1779.13C2968.46 1774.06 2972.39 1769.47 2977.81 1768.85C2983.22 1768.24 2988.08 1771.83 2988.65 1776.9Z" fill="#33B6BA"/>
<path d="M2375.52 1379.41C2376.51 1388.12 2369.8 1396.02 2360.5 1397.07C2351.21 1398.13 2342.89 1391.94 2341.9 1383.23C2340.91 1374.55 2347.63 1366.65 2356.92 1365.59C2366.22 1364.54 2374.54 1370.72 2375.52 1379.41Z" fill="#33B6BA"/>
<path d="M2981.07 1797.82C2992.73 1796.49 3001.18 1786.55 2999.94 1775.62C2998.69 1764.69 2988.23 1756.91 2976.57 1758.23C2964.9 1759.56 2956.45 1769.5 2957.69 1780.43C2958.94 1791.36 2969.4 1799.14 2981.07 1797.82Z" fill="#33B6BA"/>
<path d="M2981.14 1798.42C2993.16 1797.05 3001.87 1786.81 3000.58 1775.54C2999.3 1764.28 2988.52 1756.25 2976.5 1757.62C2964.47 1758.99 2955.77 1769.23 2957.05 1780.5C2958.33 1791.76 2969.11 1799.79 2981.14 1798.42Z" fill="#33B6BA"/>
<path d="M2624 1661.13C2624.9 1669.06 2618.78 1676.25 2610.32 1677.21C2601.86 1678.18 2594.29 1672.54 2593.39 1664.62C2592.49 1656.71 2598.61 1649.52 2607.07 1648.56C2615.52 1647.6 2623.1 1653.23 2624 1661.13Z" fill="#33B6BA"/>
<path d="M2370.48 1379.98C2371.17 1386.07 2366.48 1391.61 2359.99 1392.35C2353.5 1393.09 2347.66 1388.77 2346.96 1382.66C2346.27 1376.6 2350.96 1371.05 2357.48 1370.31C2363.95 1369.58 2369.79 1373.92 2370.48 1379.98Z" fill="#33B6BA"/>
<path d="M2551.76 1929.14C2552.27 1933.58 2548.85 1937.58 2544.13 1938.11C2539.39 1938.65 2535.16 1935.5 2534.65 1931.08C2534.15 1926.67 2537.6 1922.64 2542.31 1922.11C2547.05 1921.57 2551.26 1924.72 2551.76 1929.14Z" fill="#33B6BA"/>
<path d="M2980.5 1792.87C2989.25 1791.87 2995.59 1784.42 2994.66 1776.22C2993.73 1768.02 2985.88 1762.18 2977.13 1763.18C2968.38 1764.17 2962.04 1771.63 2962.98 1779.82C2963.91 1788.02 2971.76 1793.86 2980.5 1792.87Z" fill="#33B6BA"/>
<path d="M2573.88 1926.62C2575.68 1942.5 2563.41 1956.94 2546.46 1958.86C2529.52 1960.79 2514.28 1949.48 2512.48 1933.6C2510.68 1917.75 2522.98 1903.31 2539.92 1901.38C2556.87 1899.45 2572.07 1910.76 2573.88 1926.62Z" fill="#33B6BA"/>
<path d="M2999.32 1775.69C3000.53 1786.29 2992.32 1795.92 2981 1797.21C2969.69 1798.49 2959.52 1790.95 2958.32 1780.35C2957.11 1769.75 2965.32 1760.12 2976.64 1758.83C2987.95 1757.55 2998.12 1765.11 2999.32 1775.69Z" fill="#33B6BA"/>
<path d="M2560.22 1928.18C2561.22 1936.99 2554.44 1944.97 2545.03 1946.04C2535.63 1947.11 2527.22 1940.85 2526.22 1932.04C2525.22 1923.26 2532.01 1915.27 2541.41 1914.2C2550.79 1913.14 2559.23 1919.42 2560.22 1928.18Z" fill="#33B6BA"/>
<path d="M2628.06 1660.67C2629.2 1670.69 2621.46 1679.83 2610.73 1681.05C2600.04 1682.27 2590.41 1675.13 2589.27 1665.08C2588.13 1655.08 2595.88 1645.94 2606.6 1644.72C2617.33 1643.5 2626.93 1650.67 2628.06 1660.67Z" fill="#33B6BA"/>
<path d="M2171.59 1908.29C2173.4 1924.17 2161.1 1938.61 2144.15 1940.54C2127.18 1942.47 2111.97 1931.16 2110.17 1915.28C2108.36 1899.4 2120.64 1884.96 2137.61 1883.03C2154.59 1881.13 2169.79 1892.42 2171.59 1908.29Z" fill="#33B6BA"/>
<path d="M2562 1927.97C2563.1 1937.69 2555.57 1946.53 2545.22 1947.7C2534.82 1948.89 2525.54 1941.94 2524.44 1932.24C2523.34 1922.52 2530.85 1913.72 2541.22 1912.54C2551.59 1911.36 2560.89 1918.25 2562 1927.97Z" fill="#33B6BA"/>
<path d="M2157.8 1909.86C2158.79 1918.6 2152.05 1926.52 2142.71 1927.59C2133.36 1928.65 2125.01 1922.44 2124.02 1913.7C2123.02 1904.97 2129.76 1897.02 2139.11 1895.95C2148.43 1894.89 2156.81 1901.15 2157.8 1909.86Z" fill="#33B6BA"/>
<path d="M2566.39 1927.47C2567.76 1939.49 2558.46 1950.37 2545.69 1951.82C2532.87 1953.28 2521.42 1944.73 2520.06 1932.74C2518.69 1920.75 2527.96 1909.88 2540.76 1908.42C2553.53 1906.97 2565.03 1915.51 2566.39 1927.47Z" fill="#33B6BA"/>
<path d="M2158.85 1909.74C2159.9 1919 2152.73 1927.44 2142.81 1928.57C2132.9 1929.7 2124.02 1923.09 2122.96 1913.82C2121.91 1904.56 2129.08 1896.12 2139 1894.99C2148.91 1893.86 2157.79 1900.47 2158.85 1909.74Z" fill="#33B6BA"/>
<path d="M2615.35 1662.12C2615.74 1665.58 2613.09 1668.69 2609.4 1669.11C2605.71 1669.53 2602.43 1667.09 2602.04 1663.63C2601.65 1660.2 2604.29 1657.08 2607.99 1656.67C2611.65 1656.25 2614.96 1658.69 2615.35 1662.12Z" fill="#33B6BA"/>
<path d="M2617.45 1661.88C2617.97 1666.42 2614.45 1670.53 2609.63 1671.08C2604.78 1671.63 2600.42 1668.39 2599.91 1663.87C2599.4 1659.36 2602.91 1655.22 2607.76 1654.67C2612.58 1654.12 2616.93 1657.34 2617.45 1661.88Z" fill="#33B6BA"/>
<path d="M2142.47 1925.54C2150.58 1924.62 2156.45 1917.71 2155.59 1910.11C2154.72 1902.52 2147.45 1897.1 2139.34 1898.03C2131.23 1898.95 2125.36 1905.86 2126.22 1913.45C2127.08 1921.05 2134.36 1926.46 2142.47 1925.54Z" fill="#33B6BA"/>
<path d="M2371.07 1379.92C2371.8 1386.33 2366.87 1392.13 2360.03 1392.91C2353.21 1393.68 2347.1 1389.14 2346.37 1382.73C2345.64 1376.34 2350.58 1370.53 2357.39 1369.76C2364.24 1368.98 2370.35 1373.53 2371.07 1379.92Z" fill="#33B6BA"/>
<path d="M2153.41 1910.36C2154.14 1916.82 2149.16 1922.71 2142.24 1923.5C2135.32 1924.28 2129.14 1919.67 2128.41 1913.2C2127.67 1906.74 2132.65 1900.86 2139.57 1900.07C2146.5 1899.31 2152.68 1903.92 2153.41 1910.36Z" fill="#33B6BA"/>
<path d="M1497.54 1743.2C1498.08 1747.99 1494.36 1752.41 1489.21 1752.99C1484.06 1753.58 1479.44 1750.14 1478.89 1745.32C1478.35 1740.5 1482.08 1736.11 1487.22 1735.52C1492.37 1734.96 1496.99 1738.38 1497.54 1743.2Z" fill="#33B6BA"/>
<path d="M2142.02 1921.6C2147.81 1920.94 2152 1916.01 2151.38 1910.59C2150.77 1905.17 2145.57 1901.3 2139.79 1901.96C2134 1902.62 2129.81 1907.55 2130.42 1912.97C2131.04 1918.4 2136.23 1922.26 2142.02 1921.6Z" fill="#33B6BA"/>
<path d="M1500.63 1742.85C1501.36 1749.26 1496.38 1755.1 1489.53 1755.87C1482.66 1756.66 1476.52 1752.09 1475.79 1745.67C1475.06 1739.24 1480.02 1733.4 1486.89 1732.62C1493.73 1731.84 1499.9 1736.41 1500.63 1742.85Z" fill="#33B6BA"/>
<path d="M1818.96 1296.31C1819.63 1302.19 1815.09 1307.57 1808.78 1308.29C1802.48 1309 1796.82 1304.81 1796.14 1298.91C1795.48 1293.02 1800.02 1287.65 1806.35 1286.93C1812.66 1286.24 1818.29 1290.43 1818.96 1296.31Z" fill="#33B6BA"/>
<path d="M2150.36 1910.71C2150.92 1915.58 2147.14 1920.07 2141.89 1920.67C2136.66 1921.27 2131.95 1917.76 2131.4 1912.86C2130.84 1907.97 2134.61 1903.5 2139.87 1902.9C2145.12 1902.33 2149.81 1905.81 2150.36 1910.71Z" fill="#33B6BA"/>
<path d="M1831.98 1294.83C1833.41 1307.45 1823.66 1318.92 1810.19 1320.45C1796.69 1321.99 1784.62 1313 1783.19 1300.38C1781.75 1287.76 1791.5 1276.29 1805 1274.76C1818.44 1273.23 1830.54 1282.21 1831.98 1294.83Z" fill="#33B6BA"/>
<path d="M1496.21 1743.35C1496.69 1747.49 1493.48 1751.26 1489.07 1751.76C1484.62 1752.27 1480.66 1749.31 1480.18 1745.17C1479.71 1741.03 1482.91 1737.24 1487.36 1736.74C1491.78 1736.24 1495.74 1739.21 1496.21 1743.35Z" fill="#33B6BA"/>
<path d="M1467.23 1186.18C1467.73 1190.62 1464.29 1194.65 1459.58 1195.18C1454.86 1195.72 1450.6 1192.57 1450.09 1188.13C1449.59 1183.71 1453.01 1179.69 1457.75 1179.15C1462.47 1178.62 1466.73 1181.76 1467.23 1186.18Z" fill="#33B6BA"/>
<path d="M1318.67 1791.34C1320 1803.1 1310.9 1813.78 1298.38 1815.2C1285.82 1816.63 1274.58 1808.27 1273.24 1796.51C1271.91 1784.77 1280.98 1774.07 1293.53 1772.64C1306.06 1771.22 1317.33 1779.6 1318.67 1791.34Z" fill="#33B6BA"/>
<path d="M1323.03 1790.84C1324.63 1804.88 1313.8 1817.62 1298.82 1819.32C1283.84 1821.03 1270.42 1811.04 1268.83 1797.01C1267.23 1783 1278.09 1770.25 1293.05 1768.55C1308.02 1766.85 1321.44 1776.86 1323.03 1790.84Z" fill="#33B6BA"/>
<path d="M1505 1742.35C1505.99 1751.03 1499.27 1758.91 1490 1759.96C1480.73 1761.01 1472.39 1754.85 1471.4 1746.17C1470.41 1737.46 1477.13 1729.59 1486.42 1728.53C1495.69 1727.48 1504.01 1733.66 1505 1742.35Z" fill="#33B6BA"/>
<path d="M1498.91 1743.04C1499.54 1748.57 1495.25 1753.59 1489.38 1754.25C1483.48 1754.92 1478.17 1751 1477.54 1745.47C1476.92 1739.94 1481.2 1734.93 1487.1 1734.26C1492.98 1733.59 1498.28 1737.54 1498.91 1743.04Z" fill="#33B6BA"/>
<path d="M1314.49 1791.81C1315.58 1801.41 1308.17 1810.13 1297.93 1811.29C1287.7 1812.46 1278.51 1805.62 1277.42 1796.03C1276.33 1786.44 1283.74 1777.72 1293.98 1776.55C1304.2 1775.42 1313.4 1782.22 1314.49 1791.81Z" fill="#33B6BA"/>
<path d="M1475.69 1185.22C1476.69 1194.06 1469.88 1202.04 1460.48 1203.11C1451.08 1204.18 1442.64 1197.93 1441.64 1189.09C1440.63 1180.28 1447.45 1172.3 1456.85 1171.23C1466.25 1170.16 1474.69 1176.43 1475.69 1185.22Z" fill="#33B6BA"/>
<path d="M1320.63 1791.12C1322.09 1803.89 1312.19 1815.5 1298.56 1817.05C1284.93 1818.6 1272.68 1809.51 1271.22 1796.73C1269.77 1783.96 1279.64 1772.38 1293.3 1770.83C1306.93 1769.28 1319.18 1778.34 1320.63 1791.12Z" fill="#33B6BA"/>
<path d="M598.532 1905.16C599.75 1915.86 591.467 1925.58 580.044 1926.87C568.621 1928.17 558.368 1920.57 557.151 1909.86C555.933 1899.16 564.216 1889.45 575.639 1888.15C587.065 1886.87 597.315 1894.45 598.532 1905.16Z" fill="#33B6BA"/>
<path d="M1310.69 1792.24C1311.56 1799.89 1305.64 1806.83 1297.5 1807.76C1289.34 1808.69 1282.04 1803.25 1281.17 1795.6C1280.3 1787.98 1286.2 1781.04 1294.36 1780.11C1302.52 1779.19 1309.83 1784.62 1310.69 1792.24Z" fill="#33B6BA"/>
<path d="M588.239 1906.33C588.85 1911.7 584.713 1916.6 578.948 1917.25C573.209 1917.91 568.079 1914.07 567.467 1908.69C566.856 1903.31 570.993 1898.42 576.731 1897.77C582.473 1897.14 587.627 1900.95 588.239 1906.33Z" fill="#33B6BA"/>
<path d="M677.748 1562C678.28 1566.67 674.648 1570.97 669.61 1571.54C664.572 1572.12 660.07 1568.77 659.536 1564.07C658.999 1559.35 662.634 1555.08 667.672 1554.5C672.71 1553.93 677.211 1557.28 677.748 1562Z" fill="#33B6BA"/>
<path d="M1298.97 1820.4C1314.58 1818.63 1325.88 1805.33 1324.22 1790.71C1322.56 1776.08 1308.56 1765.66 1292.95 1767.44C1277.34 1769.21 1266.03 1782.51 1267.7 1797.14C1269.36 1811.76 1283.36 1822.18 1298.97 1820.4Z" fill="#33B6BA"/>
<path d="M674.276 1562.39C674.604 1565.27 672.368 1567.93 669.27 1568.28C666.172 1568.63 663.396 1566.54 663.069 1563.67C662.739 1560.76 664.974 1558.1 668.073 1557.75C671.144 1557.4 673.946 1559.49 674.276 1562.39Z" fill="#33B6BA"/>
<path d="M1003.63 1025.15C1004.34 1031.39 999.527 1037.05 992.872 1037.81C986.218 1038.56 980.255 1034.13 979.546 1027.89C978.837 1021.66 983.651 1015.99 990.305 1015.24C996.963 1014.5 1002.93 1018.94 1003.63 1025.15Z" fill="#33B6BA"/>
<path d="M595.22 1905.53C596.245 1914.55 589.286 1922.7 579.695 1923.79C570.104 1924.88 561.491 1918.5 560.466 1909.49C559.446 1900.52 566.402 1892.34 575.993 1891.25C585.585 1890.16 594.2 1896.57 595.22 1905.53Z" fill="#33B6BA"/>
<path d="M585.844 1906.6C586.315 1910.74 583.111 1914.48 578.693 1914.98C574.274 1915.48 570.339 1912.56 569.868 1908.42C569.4 1904.3 572.601 1900.54 576.993 1900.04C581.411 1899.53 585.376 1902.48 585.844 1906.6Z" fill="#33B6BA"/>
<path d="M1007.91 1024.66C1008.87 1033.12 1002.32 1040.8 993.298 1041.82C984.273 1042.85 976.167 1036.84 975.205 1028.38C974.243 1019.93 980.793 1012.25 989.818 1011.23C998.844 1010.2 1006.95 1016.21 1007.91 1024.66Z" fill="#33B6BA"/>
<path d="M682.41 1561.47C683.217 1568.56 677.705 1575.05 670.107 1575.91C662.51 1576.77 655.713 1571.72 654.903 1564.6C654.093 1557.48 659.578 1551 667.176 1550.13C674.773 1549.27 681.6 1554.35 682.41 1561.47Z" fill="#33B6BA"/>
<path d="M388.576 1016.27C394.766 1015.56 399.249 1010.29 398.589 1004.49C397.929 998.689 392.377 994.557 386.187 995.261C379.997 995.965 375.514 1001.24 376.174 1007.04C376.834 1012.84 382.386 1016.97 388.576 1016.27Z" fill="#33B6BA"/>
<path d="M677.775 1562C678.312 1566.72 674.675 1570.97 669.637 1571.54C664.599 1572.11 660.1 1568.79 659.563 1564.07C659.023 1559.32 662.66 1555.07 667.698 1554.5C672.709 1553.93 677.235 1557.25 677.775 1562Z" fill="#33B6BA"/>
<path d="M284.482 1202.61C285.49 1211.47 278.63 1219.54 269.174 1220.61C259.691 1221.69 251.194 1215.37 250.186 1206.51C249.178 1197.65 256.035 1189.56 265.519 1188.48C274.975 1187.4 283.474 1193.75 284.482 1202.61Z" fill="#33B6BA"/>
<path d="M399.775 1004.36C400.502 1010.75 395.544 1016.58 388.727 1017.35C381.911 1018.13 375.77 1013.56 375.044 1007.17C374.317 1000.78 379.275 994.953 386.092 994.177C392.908 993.402 399.046 997.946 399.775 1004.36Z" fill="#33B6BA"/>
<path d="M589.129 1906.23C589.795 1912.08 585.267 1917.38 579.044 1918.09C572.82 1918.8 567.215 1914.63 566.552 1908.8C565.889 1902.96 570.414 1897.64 576.637 1896.93C582.861 1896.23 588.466 1900.4 589.129 1906.23Z" fill="#33B6BA"/>
<path d="M202.163 1778.8C203.438 1790.01 194.772 1800.2 182.784 1801.57C170.822 1802.93 160.065 1794.97 158.788 1783.74C157.516 1772.55 166.178 1762.34 178.167 1760.97C190.155 1759.61 200.891 1767.62 202.163 1778.8Z" fill="#33B6BA"/>
<path d="M597.375 1905.29C598.523 1915.39 590.701 1924.59 579.924 1925.81C569.148 1927.04 559.462 1919.86 558.31 1909.73C557.162 1899.64 564.957 1890.44 575.761 1889.21C586.54 1888.01 596.226 1895.19 597.375 1905.29Z" fill="#33B6BA"/>
<path d="M194.967 1779.62C195.82 1787.12 190.017 1793.92 182.042 1794.82C174.04 1795.73 166.859 1790.41 166.006 1782.92C165.156 1775.44 170.957 1768.62 178.958 1767.71C186.96 1766.8 194.118 1772.15 194.967 1779.62Z" fill="#33B6BA"/>
<path d="M679.907 1561.75C680.567 1567.56 676.066 1572.85 669.843 1573.56C663.62 1574.27 658.072 1570.12 657.411 1564.31C656.748 1558.48 661.249 1553.19 667.445 1552.48C673.669 1551.77 679.244 1555.92 679.907 1561.75Z" fill="#33B6BA"/>
<path d="M684.353 1561.25C685.275 1569.35 678.993 1576.74 670.318 1577.73C661.643 1578.72 653.862 1572.93 652.94 1564.82C652.016 1556.69 658.298 1549.3 666.973 1548.32C675.648 1547.33 683.429 1553.12 684.353 1561.25Z" fill="#33B6BA"/>
<path d="M205.503 1778.43C206.976 1791.38 196.96 1803.13 183.166 1804.7C169.345 1806.27 156.973 1797.06 155.5 1784.11C154.03 1771.19 164.046 1759.44 177.84 1757.87C191.634 1756.3 204.033 1765.5 205.503 1778.43Z" fill="#33B6BA"/>
<path d="M278.53 1203.29C279.187 1209.07 274.707 1214.31 268.538 1215.01C262.368 1215.71 256.823 1211.59 256.168 1205.83C255.511 1200.05 259.988 1194.78 266.157 1194.08C272.327 1193.38 277.872 1197.51 278.53 1203.29Z" fill="#33B6BA"/>
<path d="M2829.06 211.044C2829.99 219.198 2823.69 226.615 2814.98 227.605C2806.25 228.597 2798.44 222.786 2797.52 214.632C2796.59 206.477 2802.9 199.06 2811.62 198.068C2820.35 197.049 2828.13 202.864 2829.06 211.044Z" fill="#33B6BA"/>
<path d="M1767.57 546.296C1768.5 554.476 1762.17 561.921 1753.44 562.914C1744.71 563.907 1736.87 558.073 1735.94 549.894C1735.01 541.714 1741.34 534.294 1750.07 533.301C1758.83 532.305 1766.64 538.142 1767.57 546.296Z" fill="#33B6BA"/>
<path d="M2830.57 210.873C2831.59 219.81 2824.68 227.91 2815.14 228.995C2805.6 230.079 2797.05 223.713 2796.03 214.802C2795.02 205.89 2801.9 197.768 2811.46 196.68C2821 195.571 2829.55 201.937 2830.57 210.873Z" fill="#33B6BA"/>
<path d="M2826.48 211.338C2827.25 218.155 2821.98 224.329 2814.73 225.154C2807.46 225.981 2800.93 221.148 2800.16 214.332C2799.38 207.516 2804.65 201.341 2811.93 200.514C2819.17 199.664 2825.7 204.522 2826.48 211.338Z" fill="#33B6BA"/>
<path d="M2235.9 612.49C2236.94 621.629 2229.86 629.926 2220.1 631.036C2210.35 632.145 2201.59 625.624 2200.55 616.51C2199.51 607.371 2206.59 599.048 2216.34 597.939C2226.09 596.83 2234.85 603.326 2235.9 612.49Z" fill="#33B6BA"/>
<path d="M2832.12 1232.45C2833.02 1240.43 2826.86 1247.68 2818.35 1248.65C2809.83 1249.62 2802.2 1243.94 2801.3 1235.96C2800.39 1228.01 2806.55 1220.76 2815.07 1219.79C2823.58 1218.82 2831.21 1224.5 2832.12 1232.45Z" fill="#33B6BA"/>
<path d="M2502.17 793.19C2502.59 796.901 2499.73 800.27 2495.77 800.72C2491.81 801.171 2488.26 798.531 2487.84 794.82C2487.42 791.134 2490.25 787.743 2494.24 787.29C2498.2 786.864 2501.75 789.504 2502.17 793.19Z" fill="#33B6BA"/>
<path d="M2830.68 210.861C2831.7 219.848 2824.77 228.027 2815.15 229.121C2805.56 230.211 2796.95 223.801 2795.93 214.814C2794.9 205.826 2801.86 197.645 2811.45 196.554C2821.07 195.46 2829.66 201.873 2830.68 210.861Z" fill="#33B6BA"/>
<path d="M2832.98 1232.36C2833.94 1240.79 2827.41 1248.44 2818.44 1249.46C2809.47 1250.48 2801.37 1244.47 2800.41 1236.06C2799.45 1227.66 2805.98 1219.98 2814.97 1218.96C2823.97 1217.94 2832.02 1223.93 2832.98 1232.36Z" fill="#33B6BA"/>
<path d="M2504.32 792.949C2504.87 797.771 2501.14 802.133 2495.99 802.719C2490.84 803.304 2486.23 799.891 2485.68 795.069C2485.13 790.272 2488.84 785.887 2494.01 785.299C2499.15 784.714 2503.78 788.152 2504.32 792.949Z" fill="#33B6BA"/>
<path d="M2833.87 210.5C2835.07 221.128 2826.84 230.785 2815.5 232.075C2804.13 233.368 2793.94 225.807 2792.73 215.179C2791.52 204.55 2799.75 194.894 2811.12 193.6C2822.46 192.285 2832.66 199.871 2833.87 210.5Z" fill="#33B6BA"/>
<path d="M2521.08 791.04C2522.61 804.546 2512.16 816.782 2497.78 818.418C2483.36 820.058 2470.43 810.456 2468.89 796.975C2467.36 783.494 2477.81 771.233 2492.22 769.594C2506.64 767.954 2519.54 777.559 2521.08 791.04Z" fill="#33B6BA"/>
<path d="M2833.01 1232.36C2833.97 1240.81 2827.41 1248.46 2818.42 1249.49C2809.42 1250.51 2801.34 1244.5 2800.38 1236.07C2799.42 1227.63 2805.95 1219.99 2814.95 1218.96C2823.94 1217.94 2832.05 1223.92 2833.01 1232.36Z" fill="#33B6BA"/>
<path d="M2835.99 1232.01C2837.13 1242.01 2829.43 1251.09 2818.74 1252.31C2808.07 1253.52 2798.5 1246.4 2797.36 1236.4C2796.22 1226.41 2803.95 1217.34 2814.62 1216.13C2825.32 1214.91 2834.86 1222.04 2835.99 1232.01Z" fill="#33B6BA"/>
<path d="M3054.02 1905.31C3051.51 1904.36 3048.74 1903.99 3045.83 1904.32C3042.95 1904.65 3040.33 1905.64 3038.1 1907.12L3054.02 1905.31Z" fill="#33B6BA"/>
<path d="M2431.99 1864.38C2432.42 1868.17 2429.48 1871.62 2425.44 1872.08C2421.38 1872.55 2417.74 1869.84 2417.31 1866.05C2416.88 1862.27 2419.81 1858.81 2423.88 1858.35C2427.92 1857.86 2431.56 1860.57 2431.99 1864.38Z" fill="#33B6BA"/>
<path d="M2842.49 1231.27C2844 1244.6 2833.67 1256.72 2819.45 1258.34C2805.22 1259.96 2792.44 1250.47 2790.92 1237.14C2789.4 1223.81 2799.73 1211.69 2813.96 1210.07C2828.18 1208.45 2840.97 1217.95 2842.49 1231.27Z" fill="#33B6BA"/>
<path d="M2054.16 1156.28C2055.68 1169.66 2045.31 1181.86 2031.03 1183.48C2016.72 1185.11 2003.87 1175.55 2002.35 1162.17C2000.83 1148.77 2011.2 1136.59 2025.51 1134.96C2039.81 1133.34 2052.63 1142.85 2054.16 1156.28Z" fill="#33B6BA"/>
<path d="M2512.24 792.045C2513.26 800.957 2506.34 809.056 2496.83 810.138C2487.3 811.223 2478.77 804.879 2477.76 795.967C2476.74 787.056 2483.63 778.959 2493.16 777.874C2502.68 776.793 2511.23 783.134 2512.24 792.045Z" fill="#33B6BA"/>
<path d="M2818.45 1249.46C2827.43 1248.44 2833.94 1240.78 2832.98 1232.36C2832.03 1223.94 2823.97 1217.94 2814.98 1218.96C2805.99 1219.98 2799.48 1227.64 2800.44 1236.06C2801.4 1244.48 2809.46 1250.48 2818.45 1249.46Z" fill="#33B6BA"/>
<path d="M2446.48 1862.73C2447.77 1874.02 2439.03 1884.32 2426.96 1885.69C2414.89 1887.07 2404.07 1879.01 2402.78 1867.7C2401.5 1856.42 2410.21 1846.15 2422.31 1844.77C2434.38 1843.4 2445.2 1851.45 2446.48 1862.73Z" fill="#33B6BA"/>
<path d="M2038.07 1158.11C2038.65 1163.16 2034.73 1167.77 2029.34 1168.38C2023.92 1169 2019.06 1165.38 2018.49 1160.33C2017.91 1155.26 2021.84 1150.67 2027.25 1150.05C2032.64 1149.42 2037.5 1153.03 2038.07 1158.11Z" fill="#33B6BA"/>
<path d="M3071.72 1903.29C3065.68 1895.54 3055.45 1891.03 3044.46 1892.28C3033.47 1893.53 3024.54 1900.22 3020.4 1909.13L3071.72 1903.29Z" fill="#33B6BA"/>
<path d="M2444.08 1863.01C2445.23 1873.08 2437.45 1882.22 2426.7 1883.45C2415.96 1884.67 2406.3 1877.51 2405.15 1867.43C2404.01 1857.39 2411.79 1848.24 2422.56 1847.02C2433.31 1845.79 2442.94 1852.93 2444.08 1863.01Z" fill="#33B6BA"/>
<path d="M2512.15 792.054C2513.17 800.94 2506.3 808.983 2496.82 810.062C2487.34 811.141 2478.84 804.819 2477.83 795.958C2476.82 787.097 2483.68 779.028 2493.17 777.95C2502.65 776.871 2511.15 783.193 2512.15 792.054Z" fill="#33B6BA"/>
<path d="M2041.82 1157.68C2042.61 1164.67 2037.17 1171.07 2029.71 1171.92C2022.22 1172.77 2015.49 1167.79 2014.69 1160.77C2013.89 1153.75 2019.33 1147.35 2026.82 1146.5C2034.31 1145.65 2041.02 1150.64 2041.82 1157.68Z" fill="#33B6BA"/>
<path d="M2050.79 1156.66C2052.11 1168.3 2043.08 1178.89 2030.66 1180.3C2018.22 1181.72 2007.04 1173.42 2005.72 1161.78C2004.39 1150.12 2013.42 1139.53 2025.87 1138.11C2038.29 1136.7 2049.46 1144.99 2050.79 1156.66Z" fill="#33B6BA"/>
<path d="M2038.21 1158.09C2038.79 1163.21 2034.82 1167.89 2029.35 1168.51C2023.85 1169.13 2018.94 1165.47 2018.35 1160.35C2017.77 1155.2 2021.74 1150.55 2027.24 1149.93C2032.71 1149.31 2037.62 1152.94 2038.21 1158.09Z" fill="#33B6BA"/>
<path d="M1122.65 1616.47C1130.7 1615.55 1136.53 1608.7 1135.68 1601.15C1134.82 1593.61 1127.6 1588.24 1119.55 1589.15C1111.5 1590.07 1105.67 1596.93 1106.53 1604.47C1107.38 1612.01 1114.6 1617.39 1122.65 1616.47Z" fill="#33B6BA"/>
<path d="M2051.35 1156.6C2052.71 1168.54 2043.46 1179.36 2030.75 1180.8C2017.98 1182.26 2006.56 1173.76 2005.2 1161.85C2003.85 1149.9 2013.09 1139.06 2025.83 1137.61C2038.55 1136.14 2050 1144.66 2051.35 1156.6Z" fill="#33B6BA"/>
<path d="M1128.37 1601.99C1128.8 1605.72 1125.89 1609.17 1121.88 1609.63C1117.86 1610.09 1114.25 1607.4 1113.83 1603.64C1113.4 1599.9 1116.31 1596.45 1120.32 1596C1124.34 1595.54 1127.95 1598.25 1128.37 1601.99Z" fill="#33B6BA"/>
<path d="M1007.86 812.603C1008.93 821.994 1001.68 830.49 991.661 831.63C981.639 832.77 972.665 826.093 971.6 816.727C970.535 807.361 977.78 798.84 987.802 797.7C997.824 796.56 1006.8 803.237 1007.86 812.603Z" fill="#33B6BA"/>
<path d="M2456.34 1861.61C2458.21 1878 2445.52 1892.92 2428.01 1894.91C2410.5 1896.9 2394.79 1885.23 2392.93 1868.82C2391.06 1852.44 2403.72 1837.52 2421.26 1835.53C2438.77 1833.54 2454.48 1845.2 2456.34 1861.61Z" fill="#33B6BA"/>
<path d="M2044.96 1157.32C2045.95 1165.96 2039.28 1173.8 2030.06 1174.85C2020.82 1175.9 2012.57 1169.75 2011.58 1161.12C2010.6 1152.48 2017.27 1144.64 2026.51 1143.59C2035.7 1142.55 2043.98 1148.69 2044.96 1157.32Z" fill="#33B6BA"/>
<path d="M2437.3 1863.78C2438.05 1870.34 2432.97 1876.29 2425.99 1877.08C2418.98 1877.88 2412.72 1873.22 2411.98 1866.66C2411.23 1860.12 2416.29 1854.18 2423.29 1853.38C2430.27 1852.59 2436.56 1857.24 2437.3 1863.78Z" fill="#33B6BA"/>
<path d="M1006.11 812.802C1007.08 821.285 1000.5 828.988 991.48 830.015C982.427 831.044 974.345 825.008 973.381 816.525C972.419 808.068 978.966 800.368 987.991 799.341C997.043 798.312 1005.15 804.345 1006.11 812.802Z" fill="#33B6BA"/>
<path d="M1121.78 1608.8C1125.31 1608.39 1127.86 1605.39 1127.48 1602.09C1127.11 1598.78 1123.95 1596.43 1120.42 1596.83C1116.89 1597.23 1114.34 1600.23 1114.71 1603.54C1115.09 1606.84 1118.25 1609.2 1121.78 1608.8Z" fill="#33B6BA"/>
<path d="M492.474 1028.08C493.085 1033.46 488.921 1038.35 483.183 1039.01C477.444 1039.66 472.289 1035.85 471.675 1030.44C471.063 1025.07 475.227 1020.17 480.966 1019.52C486.704 1018.86 491.862 1022.7 492.474 1028.08Z" fill="#33B6BA"/>
<path d="M976.611 1838.76C977.492 1846.51 971.499 1853.56 963.228 1854.5C954.957 1855.44 947.534 1849.91 946.652 1842.16C945.771 1834.41 951.767 1827.39 960.038 1826.45C968.312 1825.53 975.732 1831.03 976.611 1838.76Z" fill="#33B6BA"/>
<path d="M973.862 1839.07C974.583 1845.41 969.697 1851.16 962.934 1851.93C956.199 1852.69 950.12 1848.19 949.4 1841.85C948.682 1835.54 953.568 1829.8 960.33 1829.03C967.092 1828.26 973.144 1832.76 973.862 1839.07Z" fill="#33B6BA"/>
<path d="M1147.56 1599.8C1149.11 1613.46 1138.54 1625.89 1123.94 1627.55C1109.34 1629.21 1096.25 1619.45 1094.7 1605.82C1093.15 1592.16 1103.71 1579.73 1118.31 1578.07C1132.92 1576.41 1146 1586.15 1147.56 1599.8Z" fill="#33B6BA"/>
<path d="M1145 1600.09C1146.4 1612.44 1136.85 1623.68 1123.65 1625.18C1110.44 1626.68 1098.61 1617.9 1097.2 1605.53C1095.8 1593.19 1105.36 1581.95 1118.56 1580.45C1131.76 1578.94 1143.59 1587.75 1145 1600.09Z" fill="#33B6BA"/>
<path d="M969.848 1839.53C970.333 1843.79 967.063 1847.67 962.51 1848.19C957.984 1848.7 953.899 1845.66 953.414 1841.4C952.932 1837.15 956.229 1833.28 960.755 1832.76C965.311 1832.27 969.366 1835.29 969.848 1839.53Z" fill="#33B6BA"/>
<path d="M483.967 1045.9C493.772 1044.78 500.874 1036.43 499.829 1027.24C498.784 1018.06 489.988 1011.51 480.183 1012.63C470.377 1013.74 463.276 1022.09 464.321 1031.28C465.366 1040.47 474.162 1047.01 483.967 1045.9Z" fill="#33B6BA"/>
<path d="M972.138 1839.27C972.755 1844.7 968.57 1849.65 962.75 1850.31C956.958 1850.97 951.768 1847.08 951.15 1841.66C950.533 1836.23 954.721 1831.3 960.514 1830.64C966.336 1830.01 971.52 1833.84 972.138 1839.27Z" fill="#33B6BA"/>
<path d="M972.031 1839.28C972.642 1844.66 968.478 1849.55 962.74 1850.21C957.001 1850.86 951.844 1847.02 951.232 1841.64C950.621 1836.27 954.785 1831.37 960.523 1830.72C966.289 1830.06 971.419 1833.9 972.031 1839.28Z" fill="#33B6BA"/>
<path d="M977.556 1838.65C978.492 1846.88 972.137 1854.35 963.354 1855.35C954.572 1856.35 946.701 1850.5 945.765 1842.27C944.832 1834.06 951.186 1826.59 959.969 1825.59C968.725 1824.59 976.622 1830.45 977.556 1838.65Z" fill="#33B6BA"/>
</g>
<defs>
<clipPath id="clip0_18_221">
<rect width="3070" height="1980" fill="white"/>
</clipPath>
</defs>
</svg>
