<svg width="275" height="45" viewBox="0 0 275 45" fill="none" xmlns="http://www.w3.org/2000/svg">
<g clip-path="url(#clip0_2_4)">
<path d="M64.0788 30.24C62.7828 30.24 61.5668 29.992 60.4308 29.496C59.3108 29 58.3188 28.312 57.4548 27.432C56.6068 26.536 55.9428 25.512 55.4628 24.36C54.9828 23.192 54.7428 21.944 54.7428 20.616C54.7428 19.304 54.9748 18.072 55.4388 16.92C55.9188 15.752 56.5828 14.728 57.4308 13.848C58.2948 12.968 59.2868 12.28 60.4068 11.784C61.5428 11.272 62.7668 11.016 64.0788 11.016C65.2308 11.016 66.2788 11.184 67.2228 11.52C68.1668 11.856 69.0788 12.392 69.9588 13.128C70.1028 13.24 70.1828 13.376 70.1988 13.536C70.2308 13.68 70.2148 13.824 70.1508 13.968C70.0868 14.096 69.9908 14.192 69.8628 14.256C69.8308 14.384 69.7508 14.48 69.6228 14.544C69.4948 14.608 69.3428 14.632 69.1668 14.616C69.0068 14.6 68.8468 14.528 68.6868 14.4C68.0628 13.856 67.3828 13.456 66.6468 13.2C65.9108 12.928 65.0548 12.792 64.0788 12.792C63.0388 12.792 62.0628 13 61.1508 13.416C60.2548 13.832 59.4628 14.4 58.7748 15.12C58.0868 15.84 57.5428 16.672 57.1428 17.616C56.7588 18.56 56.5668 19.56 56.5668 20.616C56.5668 21.704 56.7588 22.72 57.1428 23.664C57.5428 24.608 58.0868 25.44 58.7748 26.16C59.4628 26.88 60.2548 27.448 61.1508 27.864C62.0628 28.264 63.0388 28.464 64.0788 28.464C64.9588 28.464 65.7908 28.32 66.5748 28.032C67.3588 27.744 68.1028 27.328 68.8068 26.784C68.9988 26.624 69.1988 26.56 69.4068 26.592C69.6308 26.624 69.8228 26.72 69.9828 26.88C70.1428 27.04 70.2228 27.248 70.2228 27.504C70.2228 27.632 70.1988 27.752 70.1508 27.864C70.1188 27.96 70.0548 28.064 69.9588 28.176C69.1428 28.928 68.2308 29.464 67.2228 29.784C66.2148 30.088 65.1668 30.24 64.0788 30.24ZM74.6047 21.912C74.6527 20.92 74.9087 20.032 75.3727 19.248C75.8527 18.464 76.4687 17.848 77.2207 17.4C77.9887 16.952 78.8367 16.728 79.7647 16.728C80.5007 16.728 81.0687 16.832 81.4687 17.04C81.8687 17.248 82.0207 17.552 81.9247 17.952C81.8607 18.192 81.7487 18.352 81.5887 18.432C81.4447 18.512 81.2607 18.544 81.0367 18.528C80.8287 18.512 80.5887 18.496 80.3167 18.48C79.4207 18.4 78.6207 18.496 77.9167 18.768C77.2287 19.024 76.6767 19.424 76.2607 19.968C75.8607 20.512 75.6607 21.16 75.6607 21.912H74.6047ZM74.7487 30C74.4607 30 74.2367 29.92 74.0767 29.76C73.9167 29.6 73.8367 29.376 73.8367 29.088V17.784C73.8367 17.496 73.9167 17.272 74.0767 17.112C74.2367 16.952 74.4607 16.872 74.7487 16.872C75.0367 16.872 75.2607 16.952 75.4207 17.112C75.5807 17.272 75.6607 17.496 75.6607 17.784V29.088C75.6607 29.376 75.5807 29.6 75.4207 29.76C75.2607 29.92 75.0367 30 74.7487 30ZM87.0849 35.712C86.9569 35.712 86.8129 35.68 86.6529 35.616C86.1089 35.376 85.9569 34.992 86.1969 34.464L93.9489 17.376C94.1889 16.864 94.5729 16.72 95.1009 16.944C95.6449 17.168 95.7969 17.544 95.5569 18.072L87.7809 35.16C87.6209 35.528 87.3889 35.712 87.0849 35.712ZM89.7489 29.592C89.5089 29.704 89.2849 29.728 89.0769 29.664C88.8689 29.584 88.7009 29.424 88.5729 29.184L83.2209 18.096C83.1089 17.856 83.0929 17.632 83.1729 17.424C83.2529 17.216 83.4129 17.056 83.6529 16.944C83.8929 16.832 84.1169 16.816 84.3249 16.896C84.5329 16.96 84.6929 17.112 84.8049 17.352L90.0609 28.44C90.1889 28.68 90.2289 28.904 90.1809 29.112C90.1329 29.32 89.9889 29.48 89.7489 29.592ZM98.9133 35.616C98.6253 35.616 98.3933 35.528 98.2173 35.352C98.0573 35.192 97.9773 34.968 97.9773 34.68V23.352C97.9933 22.104 98.2893 20.984 98.8653 19.992C99.4573 18.984 100.249 18.192 101.241 17.616C102.249 17.04 103.377 16.752 104.625 16.752C105.905 16.752 107.049 17.048 108.057 17.64C109.065 18.216 109.857 19.008 110.433 20.016C111.025 21.024 111.321 22.168 111.321 23.448C111.321 24.712 111.033 25.848 110.457 26.856C109.897 27.864 109.129 28.664 108.153 29.256C107.177 29.832 106.073 30.12 104.841 30.12C103.769 30.12 102.793 29.896 101.913 29.448C101.049 28.984 100.353 28.376 99.8253 27.624V34.68C99.8253 34.968 99.7373 35.192 99.5613 35.352C99.4013 35.528 99.1853 35.616 98.9133 35.616ZM104.625 28.44C105.553 28.44 106.385 28.224 107.121 27.792C107.857 27.36 108.433 26.768 108.849 26.016C109.281 25.248 109.497 24.392 109.497 23.448C109.497 22.488 109.281 21.632 108.849 20.88C108.433 20.128 107.857 19.536 107.121 19.104C106.385 18.656 105.553 18.432 104.625 18.432C103.713 18.432 102.889 18.656 102.153 19.104C101.417 19.536 100.841 20.128 100.425 20.88C100.009 21.632 99.8013 22.488 99.8013 23.448C99.8013 24.392 100.009 25.248 100.425 26.016C100.841 26.768 101.417 27.36 102.153 27.792C102.889 28.224 103.713 28.44 104.625 28.44ZM120.082 30C119.234 30 118.474 29.8 117.802 29.4C117.146 29 116.626 28.456 116.242 27.768C115.858 27.064 115.666 26.264 115.666 25.368V13.632C115.666 13.36 115.746 13.136 115.906 12.96C116.082 12.784 116.306 12.696 116.578 12.696C116.85 12.696 117.074 12.784 117.25 12.96C117.426 13.136 117.514 13.36 117.514 13.632V25.368C117.514 26.184 117.754 26.856 118.234 27.384C118.714 27.896 119.33 28.152 120.082 28.152H120.73C120.986 28.152 121.194 28.24 121.354 28.416C121.514 28.592 121.594 28.816 121.594 29.088C121.594 29.36 121.498 29.584 121.306 29.76C121.114 29.92 120.874 30 120.586 30H120.082ZM114.106 18.96C113.866 18.96 113.666 18.888 113.506 18.744C113.346 18.584 113.266 18.392 113.266 18.168C113.266 17.928 113.346 17.736 113.506 17.592C113.666 17.432 113.866 17.352 114.106 17.352H120.226C120.466 17.352 120.666 17.432 120.826 17.592C120.986 17.736 121.066 17.928 121.066 18.168C121.066 18.392 120.986 18.584 120.826 18.744C120.666 18.888 120.466 18.96 120.226 18.96H114.106ZM130.578 30.12C129.298 30.12 128.154 29.832 127.146 29.256C126.138 28.68 125.346 27.888 124.77 26.88C124.194 25.872 123.906 24.728 123.906 23.448C123.906 22.152 124.194 21 124.77 19.992C125.346 18.984 126.138 18.192 127.146 17.616C128.154 17.04 129.298 16.752 130.578 16.752C131.858 16.752 132.994 17.04 133.986 17.616C134.994 18.192 135.786 18.984 136.362 19.992C136.938 21 137.234 22.152 137.25 23.448C137.25 24.728 136.954 25.872 136.362 26.88C135.786 27.888 134.994 28.68 133.986 29.256C132.994 29.832 131.858 30.12 130.578 30.12ZM130.578 28.44C131.506 28.44 132.338 28.224 133.074 27.792C133.81 27.36 134.386 26.768 134.802 26.016C135.218 25.264 135.426 24.408 135.426 23.448C135.426 22.488 135.218 21.632 134.802 20.88C134.386 20.112 133.81 19.512 133.074 19.08C132.338 18.648 131.506 18.432 130.578 18.432C129.65 18.432 128.818 18.648 128.082 19.08C127.346 19.512 126.762 20.112 126.33 20.88C125.914 21.632 125.706 22.488 125.706 23.448C125.706 24.408 125.914 25.264 126.33 26.016C126.762 26.768 127.346 27.36 128.082 27.792C128.818 28.224 129.65 28.44 130.578 28.44ZM140.533 31.872C140.197 31.872 139.933 31.736 139.741 31.464C139.565 31.208 139.549 30.904 139.693 30.552L147.229 11.76C147.293 11.584 147.405 11.448 147.565 11.352C147.725 11.256 147.901 11.208 148.093 11.208C148.445 11.208 148.701 11.352 148.861 11.64C149.021 11.912 149.045 12.208 148.933 12.528L141.397 31.344C141.317 31.536 141.197 31.672 141.037 31.752C140.877 31.832 140.709 31.872 140.533 31.872ZM160.759 30.24C159.463 30.24 158.247 29.992 157.111 29.496C155.991 29 154.999 28.312 154.135 27.432C153.287 26.536 152.623 25.512 152.143 24.36C151.663 23.192 151.423 21.944 151.423 20.616C151.423 19.304 151.655 18.072 152.119 16.92C152.599 15.752 153.263 14.728 154.111 13.848C154.975 12.968 155.967 12.28 157.087 11.784C158.223 11.272 159.447 11.016 160.759 11.016C161.911 11.016 162.959 11.184 163.903 11.52C164.847 11.856 165.759 12.392 166.639 13.128C166.783 13.24 166.863 13.376 166.879 13.536C166.911 13.68 166.895 13.824 166.831 13.968C166.767 14.096 166.671 14.192 166.543 14.256C166.511 14.384 166.431 14.48 166.303 14.544C166.175 14.608 166.023 14.632 165.847 14.616C165.687 14.6 165.527 14.528 165.367 14.4C164.743 13.856 164.063 13.456 163.327 13.2C162.591 12.928 161.735 12.792 160.759 12.792C159.719 12.792 158.743 13 157.831 13.416C156.935 13.832 156.143 14.4 155.455 15.12C154.767 15.84 154.223 16.672 153.823 17.616C153.439 18.56 153.247 19.56 153.247 20.616C153.247 21.704 153.439 22.72 153.823 23.664C154.223 24.608 154.767 25.44 155.455 26.16C156.143 26.88 156.935 27.448 157.831 27.864C158.743 28.264 159.719 28.464 160.759 28.464C161.639 28.464 162.471 28.32 163.255 28.032C164.039 27.744 164.783 27.328 165.487 26.784C165.679 26.624 165.879 26.56 166.087 26.592C166.311 26.624 166.503 26.72 166.663 26.88C166.823 27.04 166.903 27.248 166.903 27.504C166.903 27.632 166.879 27.752 166.831 27.864C166.799 27.96 166.735 28.064 166.639 28.176C165.823 28.928 164.911 29.464 163.903 29.784C162.895 30.088 161.847 30.24 160.759 30.24ZM175.531 30.12C174.251 30.12 173.107 29.832 172.099 29.256C171.091 28.68 170.299 27.888 169.723 26.88C169.147 25.872 168.859 24.728 168.859 23.448C168.859 22.152 169.147 21 169.723 19.992C170.299 18.984 171.091 18.192 172.099 17.616C173.107 17.04 174.251 16.752 175.531 16.752C176.811 16.752 177.947 17.04 178.939 17.616C179.947 18.192 180.739 18.984 181.315 19.992C181.891 21 182.187 22.152 182.203 23.448C182.203 24.728 181.907 25.872 181.315 26.88C180.739 27.888 179.947 28.68 178.939 29.256C177.947 29.832 176.811 30.12 175.531 30.12ZM175.531 28.44C176.459 28.44 177.291 28.224 178.027 27.792C178.763 27.36 179.339 26.768 179.755 26.016C180.171 25.264 180.379 24.408 180.379 23.448C180.379 22.488 180.171 21.632 179.755 20.88C179.339 20.112 178.763 19.512 178.027 19.08C177.291 18.648 176.459 18.432 175.531 18.432C174.603 18.432 173.771 18.648 173.035 19.08C172.299 19.512 171.715 20.112 171.283 20.88C170.867 21.632 170.659 22.488 170.659 23.448C170.659 24.408 170.867 25.264 171.283 26.016C171.715 26.768 172.299 27.36 173.035 27.792C173.771 28.224 174.603 28.44 175.531 28.44ZM197.054 30C196.782 30 196.558 29.912 196.382 29.736C196.206 29.56 196.118 29.344 196.118 29.088V22.848C196.118 21.856 195.926 21.04 195.542 20.4C195.174 19.76 194.662 19.28 194.006 18.96C193.366 18.64 192.638 18.48 191.822 18.48C191.038 18.48 190.326 18.632 189.686 18.936C189.062 19.24 188.566 19.656 188.198 20.184C187.83 20.712 187.646 21.312 187.646 21.984H186.326C186.358 20.976 186.63 20.08 187.142 19.296C187.654 18.496 188.334 17.872 189.182 17.424C190.03 16.96 190.974 16.728 192.014 16.728C193.15 16.728 194.166 16.968 195.062 17.448C195.958 17.912 196.662 18.6 197.174 19.512C197.702 20.424 197.966 21.536 197.966 22.848V29.088C197.966 29.344 197.878 29.56 197.702 29.736C197.526 29.912 197.31 30 197.054 30ZM186.734 30C186.446 30 186.214 29.92 186.038 29.76C185.878 29.584 185.798 29.36 185.798 29.088V17.808C185.798 17.52 185.878 17.296 186.038 17.136C186.214 16.96 186.446 16.872 186.734 16.872C187.006 16.872 187.222 16.96 187.382 17.136C187.558 17.296 187.646 17.52 187.646 17.808V29.088C187.646 29.36 187.558 29.584 187.382 29.76C187.222 29.92 187.006 30 186.734 30ZM205.801 30C205.417 30 205.129 29.792 204.937 29.376L199.609 18.072C199.513 17.864 199.505 17.656 199.585 17.448C199.665 17.24 199.825 17.08 200.065 16.968C200.289 16.856 200.505 16.84 200.713 16.92C200.921 17 201.081 17.144 201.193 17.352L206.305 28.416H205.321L210.361 17.352C210.457 17.128 210.617 16.984 210.841 16.92C211.081 16.84 211.313 16.848 211.537 16.944C211.761 17.056 211.913 17.224 211.993 17.448C212.073 17.656 212.065 17.856 211.969 18.048L206.713 29.376C206.521 29.792 206.217 30 205.801 30ZM220.062 30.12C218.766 30.12 217.614 29.84 216.606 29.28C215.614 28.704 214.83 27.912 214.254 26.904C213.694 25.896 213.414 24.744 213.414 23.448C213.414 22.136 213.678 20.984 214.206 19.992C214.75 18.984 215.494 18.192 216.438 17.616C217.382 17.04 218.47 16.752 219.702 16.752C220.918 16.752 221.974 17.032 222.87 17.592C223.782 18.136 224.486 18.896 224.982 19.872C225.478 20.848 225.726 21.96 225.726 23.208C225.726 23.464 225.646 23.672 225.486 23.832C225.326 23.976 225.118 24.048 224.862 24.048H214.662V22.512H225.054L224.022 23.256C224.038 22.328 223.87 21.496 223.518 20.76C223.166 20.024 222.662 19.448 222.006 19.032C221.366 18.616 220.598 18.408 219.702 18.408C218.79 18.408 217.99 18.624 217.302 19.056C216.614 19.488 216.078 20.088 215.694 20.856C215.326 21.608 215.142 22.472 215.142 23.448C215.142 24.424 215.35 25.288 215.766 26.04C216.198 26.792 216.782 27.384 217.518 27.816C218.254 28.248 219.102 28.464 220.062 28.464C220.638 28.464 221.214 28.368 221.79 28.176C222.382 27.968 222.854 27.712 223.206 27.408C223.382 27.264 223.582 27.192 223.806 27.192C224.03 27.176 224.222 27.232 224.382 27.36C224.59 27.552 224.694 27.76 224.694 27.984C224.71 28.208 224.622 28.4 224.43 28.56C223.902 29.008 223.23 29.384 222.414 29.688C221.598 29.976 220.814 30.12 220.062 30.12ZM229.62 21.912C229.668 20.92 229.924 20.032 230.388 19.248C230.868 18.464 231.484 17.848 232.236 17.4C233.004 16.952 233.852 16.728 234.78 16.728C235.516 16.728 236.084 16.832 236.484 17.04C236.884 17.248 237.036 17.552 236.94 17.952C236.876 18.192 236.764 18.352 236.604 18.432C236.46 18.512 236.276 18.544 236.052 18.528C235.844 18.512 235.604 18.496 235.332 18.48C234.436 18.4 233.636 18.496 232.932 18.768C232.244 19.024 231.692 19.424 231.276 19.968C230.876 20.512 230.676 21.16 230.676 21.912H229.62ZM229.764 30C229.476 30 229.252 29.92 229.092 29.76C228.932 29.6 228.852 29.376 228.852 29.088V17.784C228.852 17.496 228.932 17.272 229.092 17.112C229.252 16.952 229.476 16.872 229.764 16.872C230.052 16.872 230.276 16.952 230.436 17.112C230.596 17.272 230.676 17.496 230.676 17.784V29.088C230.676 29.376 230.596 29.6 230.436 29.76C230.276 29.92 230.052 30 229.764 30ZM244.981 30C244.133 30 243.373 29.8 242.701 29.4C242.045 29 241.525 28.456 241.141 27.768C240.757 27.064 240.565 26.264 240.565 25.368V13.632C240.565 13.36 240.645 13.136 240.805 12.96C240.981 12.784 241.205 12.696 241.477 12.696C241.749 12.696 241.973 12.784 242.149 12.96C242.325 13.136 242.413 13.36 242.413 13.632V25.368C242.413 26.184 242.653 26.856 243.133 27.384C243.613 27.896 244.229 28.152 244.981 28.152H245.629C245.885 28.152 246.093 28.24 246.253 28.416C246.413 28.592 246.493 28.816 246.493 29.088C246.493 29.36 246.397 29.584 246.205 29.76C246.013 29.92 245.773 30 245.485 30H244.981ZM239.005 18.96C238.765 18.96 238.565 18.888 238.405 18.744C238.245 18.584 238.165 18.392 238.165 18.168C238.165 17.928 238.245 17.736 238.405 17.592C238.565 17.432 238.765 17.352 239.005 17.352H245.125C245.365 17.352 245.565 17.432 245.725 17.592C245.885 17.736 245.965 17.928 245.965 18.168C245.965 18.392 245.885 18.584 245.725 18.744C245.565 18.888 245.365 18.96 245.125 18.96H239.005ZM255.453 30.12C254.157 30.12 253.005 29.84 251.997 29.28C251.005 28.704 250.221 27.912 249.645 26.904C249.085 25.896 248.805 24.744 248.805 23.448C248.805 22.136 249.069 20.984 249.597 19.992C250.141 18.984 250.885 18.192 251.829 17.616C252.773 17.04 253.861 16.752 255.093 16.752C256.309 16.752 257.365 17.032 258.261 17.592C259.173 18.136 259.877 18.896 260.373 19.872C260.869 20.848 261.117 21.96 261.117 23.208C261.117 23.464 261.037 23.672 260.877 23.832C260.717 23.976 260.509 24.048 260.253 24.048H250.053V22.512H260.445L259.413 23.256C259.429 22.328 259.261 21.496 258.909 20.76C258.557 20.024 258.053 19.448 257.397 19.032C256.757 18.616 255.989 18.408 255.093 18.408C254.181 18.408 253.381 18.624 252.693 19.056C252.005 19.488 251.469 20.088 251.085 20.856C250.717 21.608 250.533 22.472 250.533 23.448C250.533 24.424 250.741 25.288 251.157 26.04C251.589 26.792 252.173 27.384 252.909 27.816C253.645 28.248 254.493 28.464 255.453 28.464C256.029 28.464 256.605 28.368 257.181 28.176C257.773 27.968 258.245 27.712 258.597 27.408C258.773 27.264 258.973 27.192 259.197 27.192C259.421 27.176 259.613 27.232 259.773 27.36C259.981 27.552 260.085 27.76 260.085 27.984C260.101 28.208 260.013 28.4 259.821 28.56C259.293 29.008 258.621 29.384 257.805 29.688C256.989 29.976 256.205 30.12 255.453 30.12ZM265.011 21.912C265.059 20.92 265.315 20.032 265.779 19.248C266.259 18.464 266.875 17.848 267.627 17.4C268.395 16.952 269.243 16.728 270.171 16.728C270.907 16.728 271.475 16.832 271.875 17.04C272.275 17.248 272.427 17.552 272.331 17.952C272.267 18.192 272.155 18.352 271.995 18.432C271.851 18.512 271.667 18.544 271.443 18.528C271.235 18.512 270.995 18.496 270.723 18.48C269.827 18.4 269.027 18.496 268.323 18.768C267.635 19.024 267.083 19.424 266.667 19.968C266.267 20.512 266.067 21.16 266.067 21.912H265.011ZM265.155 30C264.867 30 264.643 29.92 264.483 29.76C264.323 29.6 264.243 29.376 264.243 29.088V17.784C264.243 17.496 264.323 17.272 264.483 17.112C264.643 16.952 264.867 16.872 265.155 16.872C265.443 16.872 265.667 16.952 265.827 17.112C265.987 17.272 266.067 17.496 266.067 17.784V29.088C266.067 29.376 265.987 29.6 265.827 29.76C265.667 29.92 265.443 30 265.155 30Z" fill="white"/>
<rect x="-2" y="22.6274" width="32" height="32" rx="5" transform="rotate(-45 -2 22.6274)" fill="url(#paint0_linear_2_4)"/>
<path d="M11.128 26.334H17.736V28H9.462V22.008C9.462 20.888 9.742 19.8474 10.302 18.886C10.862 17.9154 11.6227 17.15 12.584 16.59C13.5453 16.03 14.5907 15.75 15.72 15.75H17.736V17.416H15.72C15.1133 17.416 14.5253 17.5327 13.956 17.766C13.396 17.9994 12.9013 18.3307 12.472 18.76C12.0427 19.1894 11.7113 19.6887 11.478 20.258C11.2447 20.818 11.128 21.4014 11.128 22.008V26.334ZM23.1188 18.004L19.3948 28H18.1908L21.9148 18.004H23.1188ZM31.9398 26.334V28H27.7258C27.0071 27.9814 26.3351 27.776 25.7098 27.384C25.0844 26.992 24.5898 26.474 24.2258 25.83C23.8618 25.186 23.6798 24.4954 23.6798 23.758C23.6798 23.0114 23.8618 22.3207 24.2258 21.686C24.5991 21.0514 25.1031 20.5474 25.7378 20.174C26.3724 19.81 27.0631 19.628 27.8098 19.628C28.5564 19.628 29.2471 19.8147 29.8818 20.188C30.5164 20.552 31.0204 21.0514 31.3938 21.686C31.7578 22.3114 31.9398 23.002 31.9398 23.758H30.2878C30.2878 23.4314 30.2224 23.1187 30.0918 22.82C29.9704 22.512 29.7931 22.2414 29.5598 22.008C29.3264 21.7747 29.0558 21.5974 28.7478 21.476C28.4491 21.3454 28.1364 21.28 27.8098 21.28C27.1564 21.28 26.5731 21.5227 26.0598 22.008C25.8264 22.2414 25.6491 22.512 25.5278 22.82C25.4064 23.1187 25.3458 23.4314 25.3458 23.758C25.3458 24.094 25.4064 24.4347 25.5278 24.78C25.6584 25.116 25.8358 25.396 26.0598 25.62C26.5638 26.096 27.1471 26.334 27.8098 26.334H31.9398Z" fill="white"/>
</g>
<defs>
<linearGradient id="paint0_linear_2_4" x1="24.6066" y1="29.9619" x2="-18.8805" y2="50.8216" gradientUnits="userSpaceOnUse">
<stop stop-color="#986DCF"/>
<stop offset="1" stop-color="#FBFF30"/>
</linearGradient>
<clipPath id="clip0_2_4">
<rect width="275" height="45" rx="5" fill="white"/>
</clipPath>
</defs>
</svg>
